<svg xmlns="http://www.w3.org/2000/svg" viewBox="0 0 33.333332 33.333332" height="33.333" width="33.333"><defs><clipPath id="a"><path d="M37.46 171.848l-.003.429-.016.223-.023.254-.024.332-.05.363-.035.196-.028.183-.082.469-.12.461-.145.488L36 177.43l-1.637 2.304-1.105 1.075-.621.48-.328.246-.176.125-.168.086c-.914.598-1.95 1.047-3.043 1.387l-1.676.351-.433.032-.426.027-.871.051-1.711-.137-1.672-.391a12.702 12.702 0 0 1-2.973-1.445l-.168-.086-.16-.137-.324-.234-.606-.492-1.066-1.082-1.555-2.297-.851-2.145-.137-.488-.098-.461-.07-.418-.031-.195-.02-.176-.05-.355-.016-.328-.02-.227-.004-.223-.003-.429h-.82l.01.429.02.223.016.285.035.34.055.391.023.207.04.183.097.457.113.481.145.535.96 2.258 1.696 2.383 1.145 1.082.648.519.344.234.168.137.172.078a11.066 11.066 0 0 0 3.148 1.446l1.746.371 1.774.117.886-.059.457-.031.446-.066 1.715-.391a12.737 12.737 0 0 0 3.09-1.504l.16-.098.168-.136.343-.227.621-.523 1.094-1.117 1.617-2.352.883-2.227.145-.515.101-.461.067-.469.039-.183.03-.196.04-.363.023-.332.016-.254v-.223l.004-.429"/></clipPath><linearGradient id="b" gradientTransform="matrix(32.4599 0 0 -32.4599 13.16 177.925)" gradientUnits="userSpaceOnUse" x2="1"><stop offset="0" stop-color="#fff"/><stop offset="1" stop-color="#151413"/></linearGradient><clipPath id="c"><path d="M25.516 159.094l-.887.027-.45.031-.437.075-1.719.421c-1.117.313-2.16.848-3.093 1.477l-.168.086-.168.137-.336.254-.617.5-1.102 1.113-1.617 2.344-.89 2.234-.134.52-.101.457-.078.468-.028.184-.03.199-.04.352-.02.34-.015.253-.012.235-.004.429.016-.429.016-.235.011-.253.04-.34.042-.352.035-.199.036-.184.086-.429.109-.496.144-.5.934-2.188 1.637-2.285 1.113-1.082.617-.481.328-.234.172-.105.172-.122c.918-.586 1.941-1.031 3.047-1.375l1.668-.359.434-.031.425-.039.864-.032 1.726.168 1.664.391c1.078.324 2.086.813 2.973 1.399l.168.132.164.11.324.215.602.527 1.066 1.047 1.555 2.285.848 2.176.132.48.102.457.078.422.031.191.02.208.039.332.023.312.016.273v.223l.008.434.816-.032-.004-.429-.015-.235-.032-.281-.023-.344-.055-.39-.023-.196-.047-.187-.082-.465-.113-.488-.149-.488-.965-2.289-1.699-2.36-1.148-1.105-.637-.535-.344-.227-.172-.125-.175-.109a12.025 12.025 0 0 0-3.157-1.426l-1.726-.36-1.79-.097"/></clipPath><linearGradient id="d" gradientTransform="matrix(31.9546 0 0 -31.9546 5.86 165.176)" gradientUnits="userSpaceOnUse" x2="1"><stop offset="0" stop-color="#151413"/><stop offset="1" stop-color="#fff"/></linearGradient></defs><path d="M0 33.333h33.333V0H0z" fill="#fff"/><path d="M26.995 22.875a2.37 2.37 0 1 1-2.37-2.372 2.372 2.372 0 0 1 2.37 2.372" fill="#161413" fill-rule="evenodd"/><path d="M24.625 23.465a.593.593 0 0 1 0-1.183.592.592 0 0 1 0 1.183zm1.68-.355v-.47l-.498-.045a1.223 1.223 0 0 0-.148-.36l.323-.384-.336-.332-.382.322c-.11-.07-.23-.117-.36-.147l-.042-.501h-.472l-.044.5c-.128.031-.25.079-.36.148l-.382-.322-.333.332.321.383a1.2 1.2 0 0 0-.15.361l-.495.045v.47l.496.04c.031.13.08.254.15.362l-.322.383.333.332.383-.318c.11.065.23.118.36.147l.043.497h.472l.042-.497c.13-.029.25-.082.36-.147l.382.318.336-.332-.323-.383a1.22 1.22 0 0 0 .148-.363l.498-.039" fill="#fff" fill-rule="evenodd"/><path d="M21.69 22.87a2.371 2.371 0 1 1-4.742.002 2.371 2.371 0 0 1 4.742-.001" fill="#1a1817"/><path d="M20.452 23.2l.074-.299a.947.947 0 0 0-.155-.642l-.144-.278c-.068-.227.066-.424.299-.438-.79-.745-2.123-.584-2.7.337l.069.01c.168 0 .333-.015.498-.021l.097.068-.087.073-.123.013-.043.062c.19.571.382 1.143.573 1.71l.06.174.013-.018.376-1.13v-.052a92.747 92.747 0 0 1-.259-.71l-.048-.036-.15-.013-.065-.099.096-.042c.193.011.383.024.576.015l.341-.015.089.065-.079.076-.13.013-.047.062c.17.497.334.995.503 1.492.043.126.082.249.13.384l.018-.05c.07-.238.136-.475.218-.71" fill="#fff" fill-rule="evenodd"/><path d="M19.514 23.471c-.051-.143-.105-.287-.162-.448-.183.524-.357 1.028-.532 1.538l.026.048c.347.089.693.084 1.034-.03l.023-.044c-.132-.358-.257-.71-.389-1.064M18.537 24.488c-.284-.785-.568-1.56-.856-2.346a1.791 1.791 0 0 0 .856 2.346M21.115 22.766a1.709 1.709 0 0 0-.198-.72l-.012.035c.013.227-.024.45-.1.661-.165.473-.327.944-.492 1.414l-.092.27c.149-.086.272-.183.38-.296.365-.38.54-.837.514-1.364" fill="#fff" fill-rule="evenodd"/><path d="M11.079 22.87a2.371 2.371 0 1 1-4.74 0 2.368 2.368 0 0 1 2.37-2.367c1.309 0 2.37 1.06 2.37 2.368" fill="#161413"/><path d="M7.473 22.413l-.158.157v.762l.158.158.158-.158v-.762l-.158-.157M9.942 22.413l-.157.157v.762l.157.158.159-.158v-.762l-.159-.157M7.772 22.413v1.413c0 .13.106.235.236.235h.252v.401l.159.158.156-.158v-.4h.268v.4l.159.158.157-.158v-.4h.252c.131 0 .237-.106.237-.236V22.413H7.772M9.174 21.903l-.089-.088.09-.086.088.086zm-.944 0l-.088-.088.088-.086.088.086zm.938-.446l.168-.314-.034-.018-.17.315a.898.898 0 0 0-.827-.008l-.162-.307-.036.018.163.306a.93.93 0 0 0-.492.814h1.863a.928.928 0 0 0-.473-.806" fill="#fff"/><path d="M32.301 22.87a2.369 2.369 0 1 1-4.74 0 2.366 2.366 0 0 1 2.368-2.367A2.369 2.369 0 0 1 32.3 22.87" fill="#161413"/><path d="M28.9 23.855V22.43h.376v1.425zm0-1.62v-.35h.376v.35h-.377M30.963 23.855h-.38v-.727c0-.153-.008-.253-.025-.297l-.077-.11-.132-.034-.176.053-.105.144c-.019.055-.03.165-.03.327v.644h-.378V22.43h.352v.21a.571.571 0 0 1 .47-.245l.226.047.158.114.074.158.023.257v.884" fill="#fff"/><path d="M5.772 22.874c0 1.307-1.061 2.37-2.369 2.37a2.372 2.372 0 0 1 0-4.744 2.372 2.372 0 0 1 2.369 2.374" fill="#161413" fill-rule="evenodd"/><path d="M4.766 22.63v.872l-.05.31c-.099.239-.295.352-.541.391l-.19.008H2.858c-.156 0-.308-.018-.45-.087-.25-.127-.364-.339-.367-.611-.006-.605-.002-1.207-.002-1.814l.14-.16.26-.005c.148.005.296-.009.443.008l.09.022.096.148c-.002.137 0 .137-.135.137h-.537l-.054.05c.002.52.004 1.038 0 1.554-.002.283.196.414.388.453l.11.008h1.1l.16-.011a.435.435 0 0 0 .36-.429c.002-.527 0-1.055.002-1.582l-.051-.043h-.475c-.148 0-.216-.072-.216-.214l.096-.101h.748c.156 0 .2.048.2.204v.891" fill="#fff" fill-rule="evenodd"/><path d="M16.384 22.872a2.373 2.373 0 0 1-2.37 2.373 2.373 2.373 0 0 1 0-4.743 2.371 2.371 0 0 1 2.37 2.37" fill="#161413"/><path d="M14.266 21.39c.302.008.585.096.859.22.217.1.414.229.596.382l.078.123-.275.265-.091.004a2.028 2.028 0 0 0-1.16-.531 2.097 2.097 0 0 0-1.692.54l-.06.061-.29-.326.065-.114c.2-.175.422-.319.668-.423.201-.088.408-.152.625-.187l.202-.013h.475M13.949 24.352c-.152-.037-.276-.11-.347-.258a.46.46 0 1 1 .852-.331.456.456 0 0 1-.35.58l-.024.009h-.131" fill="#fff" fill-rule="evenodd"/><path d="M14.023 22.074c.467.006.883.158 1.242.473l.002.095-.242.243h-.068a1.384 1.384 0 0 0-1.079-.349c-.3.026-.569.144-.795.35l-.09-.005-.246-.245.001-.068c.361-.322.784-.485 1.275-.494" fill="#fff" fill-rule="evenodd"/><path d="M14.513 23.396a.722.722 0 0 0-.964-.03h-.068l-.249-.245v-.061c.405-.392 1.155-.392 1.563-.004l-.001.058-.28.282" fill="#fff" fill-rule="evenodd"/><path d="M26.995 4.258a2.37 2.37 0 1 1-4.742 0 2.37 2.37 0 0 1 4.742 0" fill="#161413"/><path d="M24.821 5.401l-.161.016c-.246 0-.45-.058-.634-.169l-.073-.008c-.123.033-.247.063-.375.096l-.02-.02.098-.355-.014-.089a1.153 1.153 0 0 1 .04-1.307c.3-.396.706-.559 1.193-.454.477.099.779.407.893.881a1.167 1.167 0 0 1-.947 1.41zm1.176-1.474a1.405 1.405 0 0 0-1.372-1.084l-.27.028a1.404 1.404 0 0 0-.96 2.048l.008.067c-.062.217-.12.437-.182.655l.026.026c.227-.06.456-.116.683-.179l.05.007c.295.147.602.195.924.132a1.41 1.41 0 0 0 1.093-1.7" fill="#fefefe" fill-rule="evenodd"/><path d="M24.992 4.922l-.145-.023c-.324-.093-.566-.294-.761-.562a.796.796 0 0 1-.163-.327.388.388 0 0 1 .126-.379l.188-.026.031.038.122.288-.005.055-.087.118-.006.08c.113.19.273.326.476.41l.076-.016.104-.13.078-.022.206.097.045.021.062.112c-.012.147-.123.223-.256.26l-.09.006" fill="#fff" fill-rule="evenodd"/><path d="M21.69 4.258a2.37 2.37 0 1 1-4.74-.002 2.37 2.37 0 0 1 4.74.002" fill="#161413"/><path d="M20.743 3.496l-.012-.012-.19.002-.885.014-.183.003-.014.01v.176l.01.014.114.003.336.014.018.002-.022.018-.584.496-.029-.003c-.167-.205-.337-.413-.503-.622l-.12-.147h.008l.193-.016.207-.017.014-.012.016-.177-.013-.014h-1.507l-.012.014v.17l.02.019c.14.012.28.022.422.031l.024.013c.122.15.246.298.368.45l.49.59.008.021v.523l-.01.014-.214.014-.256.02-.015.016.003.148.015.015H19.93l.008-.01v-.157l-.008-.011-.067-.003c-.134-.004-.268-.011-.4-.015l-.015-.016.012-.558.01-.016.195-.175c.21-.186.422-.374.63-.562l.022-.011.093-.007.322-.023.012-.016v-.21M21.053 3.956l-.009.034-.09.393a44.38 44.38 0 0 0-.108.437l-.006.005-.155-.016-.01-.002-.006-.004v-.055l.003-.05.003-.15.004-.165.003-.163.003-.164.002-.116.003-.008.096.008.063.003.114.005.073.003.017.001v.004M20.758 5.12h-.1l-.005-.003-.01-.094-.008-.09.005-.005.05.007.072.004.08.005.017.002.005.006v.165l-.007.004h-.1" fill="#fff" fill-rule="evenodd"/><path d="M11.079 4.26a2.369 2.369 0 0 1-2.37 2.368 2.37 2.37 0 1 1 2.37-2.368" fill="#161413"/><path d="M10.076 4.773a.43.43 0 0 1-.432.43H7.773a.43.43 0 0 1-.432-.43V3.746c0-.238.194-.432.432-.432h1.87c.238 0 .433.194.433.432v1.027" fill="#fff"/><path d="M9.445 4.26l-.99.718V3.54z" fill="#161413"/><path d="M32.301 4.26a2.37 2.37 0 1 1-4.742-.006 2.37 2.37 0 0 1 4.742.005" fill="#100f0d" fill-rule="evenodd"/><path d="M29.957 5.54a2.34 2.34 0 0 1-1.606-.604l-.007-.056.044.003.102.057a3.19 3.19 0 0 0 .88.305l.36.047.312.01a3.111 3.111 0 0 0 1.112-.24l.038-.01.053.03-.017.054-.145.093c-.252.151-.528.24-.819.284l-.307.026" fill="#fff" fill-rule="evenodd"/><path d="M31.215 4.94l-.236.018-.03.002-.017-.033.024-.022.252-.087.26.013.06.086a.705.705 0 0 1-.174.449l-.041.032-.037.001-.004-.032.09-.247.016-.112-.05-.054-.113-.014M30.2 4.327l-.108.193-.207.071-.154-.134.058-.33.195-.106.211-.021.026.025v.1zm.63.256l-.036-.046-.088-.242c-.003-.265.003-.528-.003-.792l-.028-.167a.44.44 0 0 0-.238-.27.88.88 0 0 0-.419-.094l-.093.003-.264.06a.597.597 0 0 0-.393.467l.008.045.055.026.305.036.062-.03.016-.036.044-.099.264-.101.192.173.007.192-.022.017-.264.027a1.384 1.384 0 0 0-.37.097.569.569 0 0 0-.325.355l-.021.317a.47.47 0 0 0 .375.402l.243.005.22-.058.21-.163.038.004.146.172.14.005.23-.2.01-.105" fill="#fff" fill-rule="evenodd"/><path d="M5.773 4.258a2.37 2.37 0 1 1-4.74 0 2.37 2.37 0 0 1 4.74 0" fill="#161413"/><path d="M2.638 3.585h.333v-.17c0-.191.02-.333.06-.425l.224-.228a.84.84 0 0 1 .412-.09c.17 0 .336.026.5.076l-.081.417-.275-.034-.185.063-.057.232v.159h.447v.47H3.57v1.789h-.598V4.056h-.333v-.471" fill="#fff"/><path d="M16.384 4.258a2.37 2.37 0 1 1-4.74 0 2.37 2.37 0 0 1 4.74 0" fill="#161413" fill-rule="evenodd"/><path d="M12.443 5.452c.253.018.498-.02.731-.125l.292-.173-.3-.079a.7.7 0 0 1-.336-.37l.029-.036.256-.018-.168-.062a.7.7 0 0 1-.378-.597l.035-.02.276.071-.12-.107a.713.713 0 0 1-.11-.793l.049-.004c.324.374.73.602 1.218.68l.158.018.033-.038a.696.696 0 0 1 .348-.73.697.697 0 0 1 .826.103l.075.018c.13-.031.254-.078.371-.145l.03-.016a.715.715 0 0 1-.297.385c.136-.013.257-.053.375-.099l-.015.04-.29.296-.026.057a2.04 2.04 0 0 1-.487 1.367 1.855 1.855 0 0 1-1.166.657 2.008 2.008 0 0 1-1.393-.271l-.016-.009" fill="#fff" fill-rule="evenodd"/><path d="M26.996 29.08a2.368 2.368 0 0 1-2.37 2.367 2.37 2.37 0 1 1 2.371-2.366" fill="#161413" fill-rule="evenodd"/><path d="M23.513 28.614v-.742c0-.14.099-.257.24-.289a.293.293 0 0 1 .338.263l.005.055v1.435c0 .135.05.258.14.358a.546.546 0 0 0 .332.192l.093.009h.31a.622.622 0 0 0 .393-.143l.165-.293-.037-.328-.102-.169-.163-.074h-.55a.29.29 0 0 1-.297-.287.29.29 0 0 1 .24-.293l.065-.005h.55c.168 0 .318.052.454.153a.976.976 0 0 1 .319.41c.06.131.09.265.104.406a1.09 1.09 0 0 1-.083.54l-.188.283c-.14.152-.31.258-.505.324l-.276.05c-.137.015-.273.01-.406.01a1.14 1.14 0 0 1-.496-.122 1.154 1.154 0 0 1-.512-.502 1.087 1.087 0 0 1-.129-.426l-.007-.13c.003-.229.003-.46.003-.685" fill="#fff" fill-rule="evenodd"/><path d="M21.69 29.076a2.373 2.373 0 0 1-2.37 2.37 2.37 2.37 0 1 1 2.37-2.371" fill="#161413" fill-rule="evenodd"/><path d="M20.58 29.062l-.32.004c-.34-.07-.585-.479-.505-.837l.05-.132.27-.035.07.196-.036.346.01.102a.51.51 0 0 0 .383.108l.054-.039c.08-.249.126-.503.05-.765-.067-.23-.211-.388-.46-.43h-.01c-.22-.04-.422-.01-.597.135l-.117.117-.043.058a.975.975 0 0 0-.093.701c.065.314.2.583.495.75l.003.07c-.11.205-.25.396-.392.58l-.093.087-.033-.017-.227-.307c-.258-.413-.384-.87-.476-1.343-.027-.13-.032-.26-.073-.386a2.415 2.415 0 0 0-.487 0l-.005.072c.114.842.327 1.645.94 2.282l.208.169h.265l.192-.152.083-.091.098-.1c.177-.214.341-.44.469-.69l.084-.058.249-.025.052-.065v-.258l-.057-.047" fill="#fff" fill-rule="evenodd"/><path d="M11.078 29.074a2.37 2.37 0 1 1-4.741.004 2.37 2.37 0 0 1 4.741-.004" fill="#161413"/><path d="M8.089 28.094l.296.06.175.058.313-.026.22-.076c.231-.052.437 0 .621.145l.138.131-.006.034a.64.64 0 0 0-.322.51c-.02.21.044.394.19.545l.22.154.015.035a2.26 2.26 0 0 1-.373.596l-.185.153-.345.013-.143-.06a.676.676 0 0 0-.479.02l-.122.05a.405.405 0 0 1-.41-.074l-.195-.211a2.065 2.065 0 0 1-.304-.58c-.05-.147-.082-.3-.09-.457a1.098 1.098 0 0 1 .073-.5.85.85 0 0 1 .558-.504l.155-.016" fill="#fff" fill-rule="evenodd"/><path d="M9.22 27.44a.683.683 0 0 1-.121.383.657.657 0 0 1-.352.267l-.137.02-.028-.024.057-.3a.73.73 0 0 1 .435-.389l.122-.026.022.02.003.05" fill="#fff" fill-rule="evenodd"/><path d="M32.301 29.078a2.369 2.369 0 0 1-2.371 2.369 2.367 2.367 0 0 1-2.369-2.369 2.369 2.369 0 1 1 4.74 0" fill="#161413"/><path d="M30.927 29.92l-.154.153h-1.686l-.152-.153c0-.312.002-.627-.004-.94l.108-.106.106.118a.794.794 0 0 0 .624.863.802.802 0 0 0 .921-.553.796.796 0 0 0 .017-.37l.041-.053c.18-.013.18-.017.18.167v.874zm-.995-1.342c.27 0 .5.232.498.5a.505.505 0 0 1-.505.499.507.507 0 0 1-.495-.506.51.51 0 0 1 .502-.493zm.74-.497c.255 0 .255 0 .255.258 0 .25 0 .25-.25.25-.255 0-.255 0-.255-.256 0-.252 0-.252.25-.252zm.21-.29h-1.9c-.225 0-.341.117-.341.343v1.896c0 .217.12.337.333.337h1.907c.22 0 .339-.12.339-.341v-1.897c0-.221-.118-.338-.339-.338" fill="#fefefe" fill-rule="evenodd"/><path d="M5.773 29.078a2.37 2.37 0 0 1-2.37 2.369 2.368 2.368 0 0 1-2.37-2.369c0-1.306 1.06-2.37 2.37-2.37a2.374 2.374 0 0 1 2.37 2.37" fill="#1a1817"/><path d="M3.682 29.895c-.014.127-.089.21-.2.263l-.3.056c-.145-.01-.287-.032-.411-.119-.231-.161-.209-.47.042-.592a.886.886 0 0 1 .471-.088c.176.01.417.306.398.48zm-.758-1.16a.714.714 0 0 1-.14-.519.294.294 0 0 1 .205-.265.303.303 0 0 1 .324.086c.132.14.178.315.19.461.002.208-.063.312-.204.359-.138.053-.28.009-.375-.123zm.784.598l-.214-.175-.022-.248.146-.135a.513.513 0 0 0 .084-.681l-.135-.152a.446.446 0 0 0 .38-.112h-.74a.914.914 0 0 0-.362.085c-.336.158-.46.551-.26.833.116.17.287.227.481.222l.06.04.087.314h-.091c-.22.027-.44.057-.62.201-.255.204-.234.54.042.71.302.188.883.139 1.151-.092.275-.24.282-.566.013-.81" fill="#fff" fill-rule="evenodd"/><path d="M4.297 28.617v-.3h-.303v-.209h.303v-.3h.2v.3h.306v.208h-.306v.301h-.2" fill="#fff"/><path d="M16.384 29.076a2.371 2.371 0 0 1-4.74 0 2.37 2.37 0 1 1 4.74 0" fill="#161413" fill-rule="evenodd"/><path d="M14.753 29.755l-.155.052h-1.093l-.182-.073-.03-.183.145-.127.075-.004h1.079l.134.03zm-1.312-1.49l.084-.006h.516l.168.074.038.141-.196.166h-.538l-.21-.105zm2.245.522l-.034-.103-.033-.028-.1-.025h-.227l-.153-.066-.04-.117-.014-.184-.013-.065-.04-.144-.126-.244-.03-.035-.258-.205-.273-.106-.108-.01-.05-.011c-.241 0-.483.005-.722 0l-.334.039h-.012l-.046.014-.313.179a.93.93 0 0 0-.322.62l-.007.048v1.264l.008.174.03.165.077.179.227.271.1.07.056.035.067.03.176.06.114.017.066.01h1.412l.043-.003.116-.019.152-.042.168-.089a.913.913 0 0 0 .356-.4l.063-.194.022-.15c.002-.31 0-.62.002-.935" fill="#fff" fill-rule="evenodd"/><path d="M26.995 16.67a2.367 2.367 0 0 1-2.37 2.366 2.368 2.368 0 1 1 0-4.738 2.369 2.369 0 0 1 2.37 2.372" fill="#161413"/><path d="M23.64 16.757v.432h.3l.223-.01.12-.064.045-.14-.034-.122-.102-.074a1.384 1.384 0 0 0-.29-.022zm0-.641v.376h.214c.125 0 .203-.006.235-.01l.13-.057.05-.126-.04-.122-.125-.056c-.033 0-.125-.005-.276-.005zm-.325-.267h.643c.128 0 .222.005.287.015l.166.07.125.134.05.189-.06.202-.167.145.227.144.078.245-.052.214-.14.164-.217.08a7.016 7.016 0 0 1-.393.007h-.547v-1.61M25.63 16.775l-.07-.2-.159-.071-.167.074-.066.197zm-.016.314l.305.052-.186.256a.533.533 0 0 1-.322.089c-.202 0-.353-.067-.45-.197a.687.687 0 0 1-.114-.406c0-.191.051-.344.15-.453a.505.505 0 0 1 .384-.167.53.53 0 0 1 .413.176c.1.113.149.293.143.526h-.773l.073.215.18.074.122-.04.075-.125M25.063 16.164v-.273h.683v.273h-.683" fill="#fff"/><path d="M21.69 16.665a2.37 2.37 0 1 1-4.739.004 2.37 2.37 0 0 1 4.74-.004" fill="#161413"/><path d="M20 17.92l-.273-.044c-.602-.174-1.052-.548-1.417-1.044-.138-.189-.263-.38-.307-.612a.734.734 0 0 1 .24-.706l.346-.048.062.07c.076.179.15.359.224.537l-.008.104-.163.218-.012.148c.213.353.506.61.889.764l.14-.031.193-.24.147-.039c.13.056.254.118.382.178l.084.039c.13.066.127.066.116.21-.02.274-.229.415-.476.48L20 17.92M20.24 15.776c.1.086.171.2.231.321l.094.307-.009.065-.173.01-.031-.023a.905.905 0 0 0-.245-.519.936.936 0 0 0-.74-.311h-.034l-.008-.191.055-.021c.123 0 .24.013.354.047l.271.122.07.053.078.066.087.074" fill="#fff" fill-rule="evenodd"/><path d="M19.956 15.937a.85.85 0 0 1 .29.522l-.027.036-.154.014-.023-.023a.612.612 0 0 0-.269-.431.61.61 0 0 0-.375-.113l-.03-.027-.014-.156.021-.022a.834.834 0 0 1 .58.2" fill="#fff" fill-rule="evenodd"/><path d="M19.74 16.534a.325.325 0 0 0-.32-.292l-.024-.018-.016-.158.018-.02c.253-.019.512.2.54.454l-.019.017-.18.017" fill="#fff" fill-rule="evenodd"/><path d="M11.079 16.665a2.371 2.371 0 1 1-4.74 0 2.368 2.368 0 0 1 2.37-2.367c1.309 0 2.37 1.06 2.37 2.367" fill="#151412"/><path d="M9.767 15.706a.498.498 0 0 1 .004.995.497.497 0 0 1-.502-.498.492.492 0 0 1 .498-.497M9.768 17.625H9.31l-.09-.044a.672.672 0 0 1 .238-.663.5.5 0 0 1 .548-.039c.202.104.307.28.31.506.006.288.032.235-.23.24h-.318M8.6 15.898a.448.448 0 0 1 .005.894.454.454 0 0 1-.454-.446c0-.243.202-.448.45-.448M8.596 17.625h-.4l-.09-.048c-.067-.24.095-.559.332-.646a.492.492 0 0 1 .65.399c.039.295.039.295-.253.295h-.239M7.948 16.474a.403.403 0 1 1-.406-.401.395.395 0 0 1 .406.401M7.547 17.625h-.353l-.097-.1c0-.149.016-.288.122-.403.125-.129.275-.186.454-.125.185.056.29.192.313.379.032.249.027.249-.222.249h-.217" fill="#fff" fill-rule="evenodd"/><path d="M32.301 16.67a2.368 2.368 0 0 1-2.37 2.366 2.368 2.368 0 1 1 0-4.738 2.373 2.373 0 0 1 2.37 2.372" fill="#161413"/><path d="M29.315 15.759l-.018.013-.094.07-.039.03-.011.013-.005.006-.03.024-.02.017-.013.013-.027.032-.045.05-.02.037h-.012l-.004.02-.016.028-.008.005-.002.017-.038.07-.015.03-.015.04-.026.079-.013.05-.014.071-.007.047-.002.057v.017l.004.097.011.09.022.093.014.043v.01l.032.064.036.065.037.044.027.035.012.01.05.038.012.009.026.018.022.009.054.017h.015l.048-.053.015-.048.008-.039.01-.04v-.055l-.014-.027-.016-.017-.035-.048-.004-.009h-.001l-.029-.06-.005-.01-.024-.103-.005-.114.008-.071.026-.126.034-.097.06-.107.026-.04.026-.035.068-.065.05-.046.063-.043.05-.03.009-.002.018-.01.065-.027.04-.012.07-.018.054-.013.031-.005.089-.005h.091l.008.005H30.042l.039.005.022.004h.017l.034.01h.01l.031.007.01.005.055.021.11.054.053.043.046.042.078.106.028.054.03.085.017.088.007.118-.003.086-.012.106v.013l-.01.039-.026.114-.02.069-.036.093-.014.032-.042.07-.057.08-.049.047-.04.033-.095.05-.094.017-.066-.004-.02-.003-.019-.005-.04-.013-.054-.04-.042-.043-.015-.03-.018-.04-.01-.08.015-.078.023-.095.013-.044.021-.065.016-.05.009-.037.025-.078.02-.092.01-.114-.017-.088-.057-.09-.032-.023-.041-.022-.094-.006-.112.034-.026.017-.06.056-.033.049-.056.147-.014.088.004.083.01.081.033.115.001.005.003.017-.003.004-.003.022-.005.027-.005.008-.005.03-.003.015v.002l-.005.013-.004.018-.002.012-.01.046-.006.012v.005l-.001.007-.005.018-.002.012h-.001v.014l-.003.005-.002.013-.007.022v.008l-.004.014-.002.01-.016.064-.016.065-.013.053-.005.034-.008.016-.018.08-.015.075-.024.09-.017.075-.007.045-.012.07-.007.073-.001.078v.091l-.008.01-.039-.021-.071-.036-.03-.018-.058-.028-.033-.024-.032-.026-.047-.035-.055-.04-.065-.055-.026-.028-.026-.022-.002-.002h-.004l-.023-.026-.02-.024v-.004l-.037-.04-.031-.033-.01-.014-.016-.02-.026-.036-.005-.01-.004-.004-.022-.03-.004-.004-.004-.01-.018-.025-.018-.026-.003-.01-.018-.025-.02-.034-.008-.02-.005-.007-.025-.043-.002-.01-.005-.014-.01-.016-.004-.01-.003-.008-.015-.03-.002-.007-.002-.006V17.276l-.012-.026-.005-.004-.006-.023h-.002l-.004-.003v-.01l-.006-.01-.004-.016v-.009l-.004-.007-.005-.01-.002-.009-.003-.013-.003-.007-.005-.014-.007-.023v-.009l-.006-.017-.002-.017-.006-.03-.005-.017-.003-.01v-.01l-.005-.017v-.007l-.009-.057-.003-.008-.002-.01v-.016l-.001-.014-.003-.013v-.013l-.003-.004.003-.022H28.3l-.002-.008V16.734l-.003-.074V16.6l.003-.032v-.034l.002-.01v-.004l.003-.012.003-.017.001-.027v-.006l.002-.016.025-.127.021-.092.006-.025.007-.009v-.004l.016-.048.031-.083.028-.067.035-.069.028-.057.032-.05.038-.064.047-.064.016-.02.023-.028.05-.056.04-.045.062-.06.049-.043.068-.057.074-.056.017-.01.075-.047.042-.022.071-.04.06-.025.051-.021.055-.024.06-.022.067-.017.063-.016.063-.014.047-.01.036-.004.03-.003.11-.009h.122l.078.004h.013l.067.005.098.017.068.014.05.012.066.017.041.013.038.018.013.005.017.003.05.022.04.019.029.013.057.026.013.008.099.055.056.04.099.075.062.052.046.044.042.044.054.06.046.054.035.046.065.096.052.088.026.052.036.07.025.07.012.026.02.061.022.067.008.026.028.134.013.087.007.065.001.05.003.12-.004.092-.007.057-.01.06-.008.053-.016.074-.01.034-.015.053-.027.075-.018.057-.018.043-.024.051-.026.053-.015.027-.01.027-.013.017-.04.065-.031.043-.023.04-.003.004-.004.01-.056.068-.015.015-.055.06-.018.022-.005.003h-.003l-.008.004-.01.019-.021.02-.058.049-.06.048-.054.042-.042.028-.011.01-.017.012-.115.064-.123.063-.078.03-.074.026-.017.003-.088.028-.109.022-.092.013-.095.002-.118.006h-.045l-.077-.008-.054-.005-.048-.005-.047-.01-.042-.008-.036-.007-.063-.017h-.013l-.004-.014.002-.008.007-.01.018-.026.05-.092.044-.099.037-.1.002-.013.013-.04.01-.038.014-.064.017-.064.017-.069.018-.061.008-.035.01-.035.005-.026.029.035.01.012.11.083.055.027.03.008.079.022.057.01.089-.007h.007l.073-.007.07-.014.074-.026.052-.023.07-.034.089-.064.101-.093.018-.022.024-.03.005-.009.005-.005.036-.046.006-.01.02-.035.006-.008.02-.035v-.008l.037-.065h.006l-.006-.01.026-.06.002-.006.009.005-.005-.014.023-.078.023-.082.005-.022.003-.022.005-.017v-.008h.006l-.003-.014.005-.03V16.73l.003-.013h.002V16.692l.004-.022v-.032l.003-.017.004-.117-.007-.065-.011-.093-.01-.039-.003-.013v-.003l-.005-.014-.019-.057-.005-.013-.005-.017-.01-.026-.04-.08-.054-.081-.047-.061-.017-.023-.015-.008v-.008l-.05-.048-.015-.014-.052-.044-.052-.038-.06-.04h-.011l-.094-.047-.098-.036-.086-.027-.083-.015-.06-.01h-.044l-.042-.004h-.143l-.006.003h-.028l-.016.004h-.023l-.024.007h-.018l-.015.003-.03.005h-.012l-.005.005h-.008l-.065.012-.013.005h-.003l-.01.004-.013.005h-.005l-.007.003h-.01l-.097.036-.037.017-.053.02-.054.032-.005.004-.024.014" fill="#fefefe" fill-rule="evenodd"/><path d="M5.773 16.664a2.373 2.373 0 0 1-2.371 2.372 2.372 2.372 0 0 1-2.37-2.372 2.368 2.368 0 0 1 2.37-2.366 2.369 2.369 0 0 1 2.371 2.366" fill="#161413"/><path d="M2.753 16.285l.191.057.775-.594-.035-.156c0-.201.165-.365.369-.365a.368.368 0 1 1 0 .736l-.217-.07-.762.585.047.178-.05.184.769.596.213-.069a.37.37 0 1 1-.37.37l.037-.156-.78-.611-.187.052a.368.368 0 1 1 0-.737" fill="#fff"/><path d="M16.383 16.665a2.368 2.368 0 0 1-2.369 2.371 2.368 2.368 0 0 1-2.37-2.37 2.367 2.367 0 0 1 2.37-2.368 2.367 2.367 0 0 1 2.37 2.367" fill="#161413" fill-rule="evenodd"/><path d="M14.516 15.897c.31.367.229.72.026.963-.12.144-.27.24-.44.315-.242.101-.493.135-.75.114l-.157.065c-.114.143-.236.279-.353.415l-.048-.044c-.002-.154-.005-.302.002-.453l-.096-.165a.918.918 0 0 1-.311-.254.697.697 0 0 1 .035-.956c.21-.222.477-.334.773-.379.494-.07.944.026 1.32.38" fill="#fff" fill-rule="evenodd"/><path d="M15.777 16.443c.098.356-.008.614-.341.803l-.087.155c.005.135 0 .267 0 .436-.12-.135-.224-.247-.32-.366l-.155-.065a1.242 1.242 0 0 1-.63-.11l-.075-.056c.306-.144.56-.339.63-.692a.691.691 0 0 0-.145-.59c.15-.052.298-.02.444.01.29.064.53.205.68.475" fill="#fff" fill-rule="evenodd"/><path d="M26.995 10.46a2.37 2.37 0 1 1-4.741.001 2.37 2.37 0 0 1 4.74 0" fill="#161413"/><path d="M25.24 9.706v.475h-.405v.909c0 .188.001.29.01.323l.053.071.102.032.24-.056.05.46c-.139.063-.297.09-.47.09l-.29-.053-.191-.14-.084-.23a2.82 2.82 0 0 1-.02-.424v-.982h-.272v-.475h.271V9.26l.6-.348v.793h.406" fill="#fff"/><path d="M21.69 10.46a2.37 2.37 0 1 1-4.74 0 2.37 2.37 0 0 1 4.74 0" fill="#161413"/><path d="M19.932 9.112l.025.01c.246.154.49.305.737.457l.12.07.004.045-.227.187-.297.239-.058.005-.65-.393-.206-.127v-.042c.125-.105.25-.21.377-.311l.15-.125.025-.015M18.706 9.112l.023.015.281.23.243.2.013.01-.006.035-.171.104-.685.419-.058-.005-.315-.258-.2-.16-.006-.008.003-.045a80.2 80.2 0 0 0 .844-.519l.034-.018M20.266 10.234l.023.008.276.232.211.182-.003.035c-.255.149-.509.296-.761.45l-.068.039-.038-.004-.213-.184-.25-.217.002-.043c.26-.163.523-.32.784-.477l.037-.02M18.71 11.184l-.017-.008c-.274-.162-.548-.32-.823-.48l-.004-.005-.004-.035.112-.095.3-.254.075-.065h.039l.21.127c.199.123.397.239.597.363l.008.004.003.03-.115.1-.237.205-.122.105-.023.008" fill="#fff" fill-rule="evenodd"/><path d="M19.353 11.306V10.825l.006-.02.021.009.13.104.32.266.085.071.046.004.246-.137.025.019.002.114-.023.038c-.146.087-.292.18-.44.267-.125.078-.255.161-.383.24l-.029.009-.006-.031v-.472M19.287 11.306V11.786l-.03.013c-.127-.078-.254-.152-.382-.23a15.349 15.349 0 0 0-.443-.272l-.023-.042v-.11l.033-.018.242.132.037-.004c.136-.11.272-.223.41-.332l.116-.102.021-.011.017.01.002.02v.466" fill="#fff" fill-rule="evenodd"/><path d="M11.079 10.46a2.371 2.371 0 0 1-4.74 0 2.368 2.368 0 0 1 2.37-2.367c1.31 0 2.37 1.058 2.37 2.368" fill="#161413"/><path d="M7.631 9.047s.68-.435 1.326.057l-.319 1.164s-.614-.445-1.342-.03l.335-1.191M9.162 9.244s.56.457 1.345.057l-.334 1.164s-.784.467-1.344-.076l.333-1.145" fill="#fff" fill-rule="evenodd"/><path d="M7.238 10.456s.763-.436 1.352.073l-.361 1.183s-.477-.467-1.319-.089l.328-1.167M8.763 10.631s.483.404 1.294.142l-.328 1.134s-.86.403-1.284-.13l.318-1.146" fill="#fff" fill-rule="evenodd"/><path d="M32.301 10.465a2.37 2.37 0 0 1-2.371 2.367 2.365 2.365 0 0 1-2.369-2.367 2.369 2.369 0 1 1 4.74 0" fill="#161413"/><path d="M30.195 9.165l.002.005zm-.009 0h.001zm1.15 1.855v-.037l-.086-.29-.005-.006-.008-.012v-.014l.01-.039.003-.007V10.6l.003-.008v-.006l.005-.022v-.033l.005-.079v-.005l-.005-.108-.008-.072-.003-.012-.002-.009-.002-.009-.011-.048-.021-.087-.036-.1-.027-.06-.02-.047-.124-.2-.041-.054-.07-.083-.008-.004-.02-.024-.021-.02-.008-.008-.088-.075-.055-.044-.006-.004a1.466 1.466 0 0 0-.382-.189l-.102-.02-.008-.006h-.018.003-.003l-.039-.008h-.01l-.003-.003H30.1l-.013-.006h-.034l-.003-.003h-.047l-.03-.006h-.081l-.073.006H29.797v.003h-.037l-.013.006-.041.003-.047-.009-.313-.087v-.004H29.242l-.015.004-.06.004-.24.089-.16.122-.059.06-.096.148-.06.147-.029.18h-.002v.106h.002l.043.212.049.109.002.026-.01.08-.003.003v.19l.008.082v.008l.003.006.002.012v.011l.002.01.002.009.098.323.048.1.001.007.097.147.075.093.005.007.01.011.011.015.016.017.005.003.19.158.091.057.033.017.024.012.006.005.142.056.096.031.038.01h.007l.011.004.023.005h.008l.003.002h.005l.02.004h.024l.01.005h.016l.012.007H29.784l.013.004h.031l.04.003h.01l.204-.007.082-.016.006.004a.898.898 0 0 0 .35.11h.1l.06-.003.112-.027.127-.058.154-.112.067-.07.105-.165.062-.153.03-.18V11.02" fill="#fff" fill-rule="evenodd"/><path d="M29.675 9.655l.044-.013h.023v-.006H29.766l.01-.005h.038l.004-.003h.097l.11.008.294.102.09.07.073.088.025.055v.013l.003.004-.005.075-.174.1-.052-.03-.054-.048-.092-.087-.021-.01h-.003l-.057-.03-.112-.03h-.091l-.148.043-.073.096.015.092.076.062.118.046.017.01.076.022.198.042.097.032h.01l.071.028.2.14.02.018.049.076.037.107.002.01v.073l-.012.06-.167.268-.005.005-.005.004-.006.004-.02.018-.025.016-.01.005-.06.035-.012.01-.029.01-.102.038-.065.012-.044.008h-.164l-.208-.035h-.005l-.021-.004-.034-.013-.093-.034-.213-.157h-.001l-.032-.045-.031-.078-.004-.013-.001-.008V10.871l.001-.008.033-.066.08-.043H29.38l.015-.004.041.004.09.043.018.018.025.022.05.056.131.094.016.011.088.025h.01l.008.005h.032l.004.004h.051l.005-.004H29.992l.146-.056.073-.118-.053-.135-.066-.044-.133-.048-.157-.04-.013-.008-.096-.026-.23-.088-.044-.025-.06-.047-.097-.189v-.009l-.004-.009V10.164l-.003-.06.003-.011V10.068l.004-.007v-.015l.009-.033-.003-.005.013-.04.089-.144.172-.12.062-.027.003-.007.068-.015M5.773 10.46a2.37 2.37 0 1 1-4.74 0 2.368 2.368 0 0 1 2.37-2.367 2.369 2.369 0 0 1 2.37 2.368" fill="#161413" fill-rule="evenodd"/><g clip-path="url(#a)" transform="matrix(.13333 0 0 -.13333 0 33.333)"><path d="M37.46 171.848l-.003.429-.016.223-.023.254-.024.332-.05.363-.035.196-.028.183-.082.469-.12.461-.145.488L36 177.43l-1.637 2.304-1.105 1.075-.621.48-.328.246-.176.125-.168.086c-.914.598-1.95 1.047-3.043 1.387l-1.676.351-.433.032-.426.027-.871.051-1.711-.137-1.672-.391a12.702 12.702 0 0 1-2.973-1.445l-.168-.086-.16-.137-.324-.234-.606-.492-1.066-1.082-1.555-2.297-.851-2.145-.137-.488-.098-.461-.07-.418-.031-.195-.02-.176-.05-.355-.016-.328-.02-.227-.004-.223-.003-.429h-.82l.01.429.02.223.016.285.035.34.055.391.023.207.04.183.097.457.113.481.145.535.96 2.258 1.696 2.383 1.145 1.082.648.519.344.234.168.137.172.078a11.066 11.066 0 0 0 3.148 1.446l1.746.371 1.774.117.886-.059.457-.031.446-.066 1.715-.391a12.737 12.737 0 0 0 3.09-1.504l.16-.098.168-.136.343-.227.621-.523 1.094-1.117 1.617-2.352.883-2.227.145-.515.101-.461.067-.469.039-.183.03-.196.04-.363.023-.332.016-.254v-.223l.004-.429" fill="url(#b)"/></g><g clip-path="url(#c)" transform="matrix(.13333 0 0 -.13333 0 33.333)"><path d="M25.516 159.094l-.887.027-.45.031-.437.075-1.719.421c-1.117.313-2.16.848-3.093 1.477l-.168.086-.168.137-.336.254-.617.5-1.102 1.113-1.617 2.344-.89 2.234-.134.52-.101.457-.078.468-.028.184-.03.199-.04.352-.02.34-.015.253-.012.235-.004.429.016-.429.016-.235.011-.253.04-.34.042-.352.035-.199.036-.184.086-.429.109-.496.144-.5.934-2.188 1.637-2.285 1.113-1.082.617-.481.328-.234.172-.105.172-.122c.918-.586 1.941-1.031 3.047-1.375l1.668-.359.434-.031.425-.039.864-.032 1.726.168 1.664.391c1.078.324 2.086.813 2.973 1.399l.168.132.164.11.324.215.602.527 1.066 1.047 1.555 2.285.848 2.176.132.48.102.457.078.422.031.191.02.208.039.332.023.312.016.273v.223l.008.434.816-.032-.004-.429-.015-.235-.032-.281-.023-.344-.055-.39-.023-.196-.047-.187-.082-.465-.113-.488-.149-.488-.965-2.289-1.699-2.36-1.148-1.105-.637-.535-.344-.227-.172-.125-.175-.109a12.025 12.025 0 0 0-3.157-1.426l-1.726-.36-1.79-.097" fill="url(#d)"/></g><path d="M3.73 9.498c0 .169-.138.304-.309.304a.306.306 0 0 1-.307-.304c0-.17.138-.311.307-.311.17 0 .308.14.308.31M2.372 10.74a.308.308 0 0 1 .42.113.306.306 0 0 1-.113.418.306.306 0 0 1-.421-.113.305.305 0 0 1 .114-.418M4.126 11.293a.305.305 0 0 1-.112-.418.308.308 0 0 1 .42-.113.311.311 0 0 1 .113.422.307.307 0 0 1-.42.11M3.76 9.637c.31.13.53.44.53.798l-.03.226.202.047.035-.273c0-.467-.301-.869-.718-1.013l.007.076-.026.139M2.579 10.643l-.027-.208c0-.358.22-.668.531-.798l-.027-.14.007-.075a1.074 1.074 0 0 0-.718 1.013l.027.24.207-.032M3.932 11.136a.86.86 0 0 1-.51.165.852.852 0 0 1-.547-.191l-.113.176a1.072 1.072 0 0 0 1.286.024l-.116-.174" fill="#fff"/><path d="M16.384 10.461a2.37 2.37 0 1 1-4.74.002 2.37 2.37 0 0 1 4.74-.002" fill="#161413" fill-rule="evenodd"/><path d="M15.456 11.472h-.552a1.948 1.948 0 0 0-1.948-1.946v-.553c1.378 0 2.5 1.121 2.5 2.499" fill="#fff"/><path d="M14.552 11.553h-.554c0-.6-.486-1.088-1.087-1.088v-.55a1.64 1.64 0 0 1 1.641 1.638" fill="#fff"/><path d="M13.565 11.271a.37.37 0 0 1-.371.37.37.37 0 1 1 .37-.37" fill="#fff"/></svg>