<svg xmlns="http://www.w3.org/2000/svg" viewBox="0 0 48 48" width="96" height="96"><path d="M42 37a5 5 0 0 1-5 5H11a5 5 0 0 1-5-5V11a5 5 0 0 1 5-5h26a5 5 0 0 1 5 5z" fill="#0288d1"/><path d="M31.895 24.633c-.739-.805-1.723-1.332-2.95-1.594l-.68-.102a4.32 4.32 0 0 0 2.005-1.683c.488-.766.73-1.629.73-2.61C31 14 24.902 14 23.445 14H17v20h8.059c1.382 0 2.511-.129 3.406-.375a7.088 7.088 0 0 0 2.469-1.262 5.353 5.353 0 0 0 1.503-1.867c.376-.754.563-1.629.563-2.621 0-1.36-.371-2.438-1.105-3.242zM22 18h1.82s2.184-.063 2.184 2-2.117 2-2.117 2H22zm2.957 12c-.496.02-1.39.008-2.687.008H22V25h3.043c.527.016 2.957-.078 2.957 2.46 0 2.54-2.547 2.52-3.043 2.54z" fill="#fff"/></svg>