<svg xmlns="http://www.w3.org/2000/svg" viewBox="0 0 252 252" width="96" height="96"><g stroke-miterlimit="10" font-weight="none" font-size="none" text-anchor="none" style="mix-blend-mode:normal" font-family="none" fill="none"><path d="M33.845 220.29V33.162h187.129V220.29z"/><path d="M51.81 221.226c-10.439 0-18.9-8.462-18.9-18.9v-151.2c0-10.438 8.461-18.9 18.9-18.9h151.2c10.438 0 18.9 8.462 18.9 18.9v151.2c0 10.438-8.462 18.9-18.9 18.9z" fill="#03a9f4"/><path d="M189.741 86.441c-4.586 2.03-9.51 3.382-14.704 4.018 5.276-3.138 9.347-8.143 11.255-14.055a51.269 51.269 0 0 1-16.246 6.155c-4.654-4.937-11.295-7.994-18.654-7.994-14.122 0-25.58 11.349-25.58 25.35 0 1.974.23 3.909.663 5.775a72.815 72.815 0 0 1-52.714-26.5c-2.219 3.748-3.463 8.13-3.463 12.77 0 8.793 4.504 16.544 11.376 21.102-4.193-.121-8.143-1.298-11.593-3.165v.298c0 12.296 8.82 22.536 20.507 24.876a25.601 25.601 0 0 1-6.723.906c-1.65 0-3.26-.19-4.815-.473 3.246 10.05 12.688 17.395 23.888 17.612a51.722 51.722 0 0 1-31.775 10.862c-2.07 0-4.098-.122-6.1-.365 11.335 7.17 24.781 11.376 39.214 11.376 47.047 0 72.79-38.633 72.79-72.153 0-1.096-.041-2.191-.095-3.26a50.605 50.605 0 0 0 12.769-13.135" fill="#fff"/></g></svg>