<svg xmlns="http://www.w3.org/2000/svg" width="151.412" height="149.387"><path d="M101.688.007c-.196.054-.008.423.469.718.984.609 1.804 2.174 1.125 2.157-.3-.008-1.884-.555-2.688-.938-.35-.167-1.388-.568-2.312-.875C96.61.514 96.598.52 93.75.632c-4.621.18-6.29.346-6.187.656.06.18 1.212.612 3.781 1.437.65.209 1.331.453 1.531.532.29.113 1.397.393 3.188.812.05.012.412.107.812.188 1.96.393 1.793.831-.312.812-1.664-.015-2.313.084-2.313.375 0 .183 2.566 1.742 4.063 2.469.6.29 1.269.632 1.469.75.2.118 1.012.457 1.812.75.8.292 1.919.695 2.469.906.55.211 1.275.473 1.625.563.35.089 1.224.367 1.937.625.714.257 1.575.495 1.907.53.68.075.895.366.406.563-.18.072-.97.167-1.719.219-.75.052-1.523.178-1.719.281-.353.186-.353.212 0 .469 1.985 1.443 2.905 2.031 3.063 2.031.103 0 .31.129.469.282.616.593 1.984 1.526 3.375 2.28.8.435 2.011 1.13 2.687 1.563.676.433 1.306.782 1.406.782.1 0 .596.306 1.094.656.498.35.993.625 1.094.625.1 0 .187.072.187.156s.325.27.75.406 1.044.417 1.344.625c.57.396 1.15.653 2.75 1.157.526.165.94.367.906.468-.066.2-2.377.625-2.875.532-.168-.032-.4.066-.5.187-.13.156.179.77 1.094 2.125.707 1.047 1.345 1.919 1.406 1.969.062.05.505.544.97 1.094 1.144 1.357 2.886 3.142 4.312 4.375 2.127 1.84 4.876 4.628 4.937 5 .053.324-.002.35-.75.312l-.844-.031-.125.875c-.141 1.197.023 3.27.375 4.937.925 4.38 1.946 7.68 4.032 13.063.662 1.71.541 1.858-.97 1.344-.472-.162-.899-.226-.968-.157-.43.43-.345 5.952.125 7.719 1.565 5.878 2.276 9.85 1.906 10.813-.103.27-.155.283-.468 0-.188-.17-.428-.616-.532-1-.211-.786-.451-.922-.625-.313-.41 1.439-1.73 4.238-2.593 5.438-1.655 2.299-4.646 6.135-4.72 6.062-.124-.125-.034-17.538.095-18.062.083-.34.053-.425-.157-.344-.595.228.133-.23-.875-3.344-.27-.837-.706.779-.75 1.563-.003 1.554-.119 1.973-.593 1.906-.38-.054-.399-.133-.407-4.344-.006-3.011-.062-4.373-.218-4.656-.234-.424-.32-.875-.563-2.75-.164-1.271-.477-1.846-.625-1.125-.05.24-.16 1.065-.219 1.812-.104 1.319-.307 1.85-.593 1.563-.077-.077-.145-1.084-.157-2.25-.028-2.852-.024-2.81-.343-2.688-.745.286-1.02-.418-.657-1.687.214-.744.089-1.196-.312-1.031-.47.193-1.013.207-1.25.03-.457-.338-.583.06-.469 1.407l.094 1.344-.594.062-.594.063-.062 2.437c-.031 1.342-.105 2.48-.156 2.532-.267.266-.466-.446-.563-1.938-.158-2.434-.46-2.414-.719.063-.062.6-.16 1.325-.218 1.625-.058.3-.121 2.555-.157 5-.035 2.444-.125 4.531-.218 4.625-.334.333-.75-.055-.75-.688 0-.968-.218-2.281-.375-2.281-.205 0-.407 1.05-.375 1.937.032.906-.365 1.43-.875 1.157-.221-.119-.384-.509-.47-1.157-.26-1.99-.319-2.314-.468-2.406-.142-.088-.286.445-.406 1.563-.027.25-.119.393-.219.343-.1-.05-.203-.862-.219-1.812-.025-1.47-.067-1.702-.312-1.656-.23.042-.281-.126-.281-.782 0-.58-.075-.843-.25-.843-.461-.11-.965-.013-1.106-.004-.14.009-.178.257-.176.597.052.346.063.872-.218 1.031-.285.161-.344.409-.344 1.688 0 1.679-.326 2.213-.469.781-.12-1.209-.418-1.154-.531.094-.056.607-.267 1.293-.531 1.718-.382.615-.436.97-.532 3.063l-.125 2.406H95.782l-.094-1.906c-.09-1.88-.085-1.913-.594-2.156-.389-.186-.511-.344-.437-.625.104-.4-.318-1.407-.594-1.407-.291 0-.719.793-.719 1.313 0 .333-.166.583-.469.781-.433.284-.468.39-.468 2.094 0 1.087-.068 1.832-.188 1.906-.157.097-1.692.151-2.719.094-.118-.007-.156-3.126-.156-9 0-7.592.02-9.106.25-9.656.307-.735.355-1.412.094-1.25-.305.188-.57-.674-.594-1.813-.018-.83-.117-1.094-.312-1.094-.196 0-.263.31-.313 1.25-.07 1.337-.305 1.997-.656 1.875-.202-.07-.233-.5-.094-1.312.048-.282-.033-.335-.469-.344-.523-.01-.574-.056-.75-1.125-.1-.611-.276-1.252-.406-1.406-.141-.168-.28-1.031-.344-2.156-.07-1.046-.875-1.72-.875-1.72-1.182 1.146-1.063 2.153-1.28 3.876-.134.175-.248.543-.25.812-.008.566-.28.82-.438.407-.06-.155-.098-3.56-.094-7.563.005-4.995-.083-7.336-.219-7.5-.109-.131-.227-.96-.281-1.844-.115-1.882-.18-2.194-.438-1.937-.1.1-.216.746-.25 1.437a74.966 74.966 0 0 1-.093 1.563c-.022.301-.544.476-.563.187-.082-1.217-.23-1.713-.594-2.25-.425-.626-.438-.724-.406-4.125.023-2.382-.033-3.706-.187-4.156-.724-2.182-.529 2.02-1.438-.344-.182-.545-.37-.672-.187-1.28.363-1.419.371-2.56-.72-2.97-.726-.317-.376-1.583-.187-2.218.423-1.365.18-1.16-.093-1.438-.138-.14-.438-.466-.438-1.375s-.141-1.278-.187-1.625c-.077-.582-.314-2.91-.344-7l-.031-3.031s-.723-.156-.72.031c.006.238-.04 3.13-.062 4.688-.045 3.347-.128 4.825-.312 5.312-.14.37-.202 1.059-.188 1.625.023.874-.09 1.113-.437 1.375-.406.306-.409.313-.125 1.406.396 1.528.368 1.998-.125 2.25-.975.5-1.197 1.687-.75 2.97.16.456.073.69-.188 1.28-.346.786-.656.885-.656.313 0-.624-.288-.567-.594.125-.225.511-.301 1.486-.375 4.062-.1 3.553-.15 3.8-.687 4.5-.205.268-.344.73-.344 1.22 0 .79-.196 1.046-.406.5-.06-.159-.125-.803-.125-1.438 0-.636-.093-1.192-.188-1.25-.196-.122-.322.551-.437 2.25-.056.82-.161 1.25-.375 1.406-.231.169-.297.382-.219.906.25 1.676.195 14.219-.062 14.219-.1 0-.188-.147-.188-.344 0-.196-.168-.452-.375-.562-.33-.177-.348-.357-.312-1.47.033-1.017-.053-1.429-.407-2.155-.24-.495-.473-.903-.53-.907-.059-.004-.39.399-.72.907-.526.812-.56.998-.375 1.406.307.672.066 2.072-.375 2.187-.34.09-.41.233-.625 1.563-.11.686-.13.679-.75.562-.21-.04-.469-.24-.625-.093-.217.206.086.578.125.875.095.71.066.914-.156 1-.432.166-.629-.202-.75-1.563-.171-1.927-.457-1.924-.656 0-.085.819-.2 1.255-.406 1.406-.286.21-.304.299.062 1.125.386.873.395 1.04.375 9.594-.016 6.92-.062 8.754-.25 8.875-.318.205-2.395.103-2.562-.125-.074-.1-.124-.813-.125-1.594-.003-1.355-.022-1.443-.563-1.937-.312-.285-.503-.612-.437-.719.139-.225-.38-1.281-.625-1.281-.258 0-.448.36-.563 1.156-.058.4-.201.71-.312.688-.41-.08-.576.474-.657 2.031-.045.877-.11 1.642-.156 1.687-.045.046-3 .092-6.562.125-4.684.044-6.48.023-6.5-.125-.016-.112-.053-1.206-.063-2.406-.016-1.921-.08-2.264-.437-2.844-.226-.364-.339-.952-.407-1.312-.173-.92-.298-.802-.437.25-.121.911-.325 1.162-.531.625-.061-.158-.062-.883 0-1.625.037-.45.43-1.012.125-1.344-.112-.121-.335 0-.5 0-.494 0-.496-.003-.375-.969.04-.323.234-.68.014-.92-.439-.075-.954-.032-1.296-.017-.228.238 0 .67 0 1 0 .928-.01.98-.406.938-.412-.045-.408-.002-.312 1.156.1 1.214-.14 2.272-.438 1.969-.09-.092-.187-.507-.219-.907-.031-.4-.15-.718-.25-.718s-.218.318-.25.718c-.031.4-.125.812-.218.907-.094.095-.157.54-.157 1 0 .46-.098.942-.218 1.062-.287.287-1.04.29-1.063 0-.01-.125-.052-.895-.094-1.687-.04-.793-.132-1.477-.187-1.532-.24-.24-.435.556-.438 1.75-.002.91-.095 1.346-.28 1.5-.578.48-.626.015-.626-4.437 0-3.597-.076-4.572-.312-5.219-.168-.46-.284-1.338-.282-2.094.003-.883-.051-1.361-.218-1.5-.364-.302-.65.295-.625 1.375.01.489-.023 1.18-.094 1.5-.13.59-.43.763-.562.344-.057-.179-.258-3.352-.282-4.469-.003-.125-.145-.218-.343-.218-.48 0-.634-.667-.375-1.625.111-.416.17-.802.125-.875-.046-.073-.573-.112-1.157-.094-.382.012-.822-.229-1.062.031-.292.315.042.853.062 1.281.055 1.179.016 1.282-.312 1.282-.499 0-.544.222-.563 2.562-.014 1.852-.163 2.618-.468 2.313-.06-.059-.162-.74-.22-1.5-.115-1.524-.368-2.038-.874-1.844-.271.104-.306.262-.219 1a4.685 4.685 0 0 1-.156 1.75c-.19.631-.261 2.073-.281 5.531-.016 2.58-.08 4.813-.157 4.938-.077.124-.256.151-.406.093-.268-.103-.504-1.27-.5-2.625.003-.922-.155-1.36-.437-1.125-.14.115-.3.87-.375 1.844-.094 1.192-.213 1.644-.407 1.719-.182.07-.226.27-.156.594.173.802.292 18.365.125 18.468-.086.054-.452-.306-.812-.78-.54-.714-1.587-1.999-2.907-3.657-1.01-1.27-2.15-3.016-2.531-3.844-.992-2.155-1.2-2.637-1.406-3.406-.179-.668-.239-.774-.438-.563-.13.14-.39.69-.562 1.22-.176.544-.382.944-.5.905-.32-.105-.463-2.087-.219-3.312.515-2.59.634-3.086.906-3.969 1.067-3.461 1.426-6.015 1.313-9.344-.05-1.439-.151-2.65-.219-2.718-.068-.068-.545.078-1.062.343-1.085.556-1.472.434-1.22-.375.308-.982 1.477-4.14 1.626-4.406.084-.15.44-1.238.812-2.437.373-1.2.759-2.407.844-2.657.085-.25.274-1.062.438-1.812.163-.75.377-1.694.468-2.094.637-2.782.7-6.326.125-6.687-.234-.148-.389-.136-.656.03-.543.34-.937.276-.937-.155 0-.395 1.887-2.36 4.156-4.313 1.9-1.634 5.856-5.707 6.656-6.844a66.61 66.61 0 0 1 1.406-1.906c.375-.487.688-.953.688-1.031 0-.078.149-.288.312-.469.372-.41.33-.43-2-.719-2.336-.29-2.475-.562-.562-1.03.986-.243 4.315-1.855 5.844-2.813a82.911 82.911 0 0 1 2.375-1.407c.776-.442 1.68-.992 2.03-1.25.772-.565 1.125-.789 2.188-1.375a27.05 27.05 0 0 0 2.094-1.343c.7-.499 1.955-1.376 2.781-1.938.826-.561 1.461-1.098 1.407-1.187-.134-.216-1.003-.372-2.563-.438-.707-.03-1.382-.115-1.5-.187-.293-.181-.276-.47.031-.47.509 0 5.771-1.637 7-2.187a150.185 150.185 0 0 0 3.344-1.562c.283-.136.598-.25.688-.25.09 0 .609-.275 1.156-.625 1.065-.678 2.075-1.165 3.281-1.938a.45.45 0 0 0 .375-.437c0-.337-.11-.33-1.844-.281-1.257.035-1.91-.044-2-.188-.165-.268.256-.527.844-.531.373-.002 2.5-.604 3.625-1.031.15-.057 1.007-.366 1.906-.688C65.52.991 65.537.955 60.094.82c-3.182-.08-3.923-.065-5.53.25-1.093.214-2.29.589-2.907.906-.576.297-1.214.563-1.406.563-.193 0-.635.16-1 .375-.538.317-.69.355-.813.156-.182-.294.097-.86.625-1.281 2.05-1.632 1.9-1.706-1.187-.625-.65.227-1.55.526-2 .656-.45.13-.9.257-1 .312-.1.056-.2.116-.25.125-.803.16-5.743 4.673-6.563 6-.448.726-1.064.852-1.094.22a31.06 31.06 0 0 1 0-1.72c.02-.724-.011-1.312-.062-1.312-.525 0-5.938 4.47-5.938 4.906 0 .303-.885 1.625-1.093 1.625-.143 0-.157-.501-.063-1.75.15-2.008.25-1.975-1.406-.469-.47.428-.916.782-1 .782-.084 0-1.269 1.081-2.625 2.406-2.279 2.225-3.664 3.796-4.344 5-.15.266-.566 1.037-.937 1.687-.867 1.518-1.896 4.32-2.063 5.657-.21 1.677-.527 1.445-1.562-1.22-.63-1.62-.728-1.695-1.344-.874-.286.38-.57.731-.625.781-.13.117-.594.925-1.281 2.188-.3.55-.708 1.263-.907 1.593-.577.96-1.818 4.777-2.468 7.657-1.06 4.683-2.178 8.562-2.47 8.562-.09 0-.443-.669-.812-1.469-.369-.8-.779-1.437-.906-1.437s-.327.325-.437.75a82.906 82.906 0 0 1-.594 2.062c-.638 2.13-.956 4.462-1.219 8.875-.1 1.687-.136 3.119-.094 3.188.043.069.079.813.094 1.656.047 2.576.632 6.189 1.219 7.594.217.52.213.594-.031.687-.412.158-2.282-.556-2.282-.875 0-.272-.727-1.218-.937-1.218-.13 0-.173.549-.094 1.75.064.974.12 2.319.125 2.968.007 1.075.219 2.97.75 7.282.375 3.044 1.902 8.017 3.281 10.656.512.979 1.017 1.802 1.125 1.844.33.125 1.22 1.082 1.22 1.312 0 .142-.172.17-.5.094-.703-.162-3.198-1.407-3.438-1.719-.359-.464-.433.08-.157 1.094 2.24 8.23 4.951 13.788 8.375 17.156 1.86 1.829 4.78 5.75 4.782 6.406 0 .125-.165.22-.375.22-.32 0-.348.078-.25.468.064.256.416.95.812 1.531.396.58.719 1.118.719 1.188 0 .241 1.19 1.829 2.312 3.125 3.079 3.552 3.884 4.416 4.47 4.718.283.147.818.52 1.187.844.368.324 1.05.8 1.5 1.031.45.232 1.087.795 1.437 1.25.767 1 1.4 1.604 2.375 2.375.616.488.717.69.719 1.25.004.968.318 1.46 1.594 2.438.989.758 2.396 1.358 2.843 1.25.08-.02.313.07.532.187.222.12 1.33.227 2.5.25.697.014 1.625-.455 2.093.063.158.174-.043.453-.062.687-.101 1.254 1.178 2.57 2.531 2.594.563.01.827.33.531.625-.518.519-.002 2.034.938 2.75.953.727 2.397.918 3.812.531.625-.17 1.27-.418 1.438-.562.45-.385.69-.153.656.687-.031.789.34 1.25 1 1.25.428 0 2.584-.981 2.75-1.25.27-.438.537-.172.438.438-.175 1.078.586 1.583 2.156 1.437.683-.063.976.001 1.25.25.494.45 2.183 1.5 2.406 1.5.1 0 .397.111.688.25 1.22.585 1.89.849 3.093 1.22.7.214 2.094.661 3.094 1 1 .337 2.219.646 2.719.687.5.04 1.081.106 1.281.156 7.03.68 10.01.185 14.375-.688 1.006-.114 3.406-.812 3.656-1.062.063-.063.248-.096.407-.094.498.004 4.38-2.088 5-2.687.52-.503.727-.578 1.75-.625 1.906-.089 2.525-.585 1.968-1.625-.302-.565-.063-.619.594-.125 1.81 1.359 4.031 1.18 3.688-.282-.054-.227-.033-.51.062-.656.148-.227.284-.217.969.125 1.52.76 3.642.604 4.969-.375.973-.719 1.253-1.307 1.093-2.375-.117-.783-.115-.828.375-.937.958-.214 1.083-.268 1.72-.813.572-.49.636-.664.718-1.687l.094-1.125 1.28.062c.938.044 1.74-.088 3.095-.437 2.306-.596 3.429-1.117 4.406-2.094.709-.71.75-.829.75-1.719 0-.904.03-1.008.625-1.375 1.429-.883 3.244-3.432 3.469-4.906.078-.513.244-.73.78-1.031.374-.21.963-.627 1.313-.938 3.278-2.911 4.723-4.31 4.813-4.594.058-.184.17-.343.25-.343.206 0 2.03-2.775 2.031-3.094 0-.144.191-.6.438-1 .246-.4.465-.927.468-1.188.005-.408-.08-.449-.468-.375-.708.136-.728-.376-.094-1.406.307-.5.687-1.072.844-1.25.624-.706 1.558-1.92 1.75-2.281.246-.466 1.467-2.01 1.656-2.094.075-.033.125-.176.125-.312 0-.137.297-.477.656-.75.629-.48 1.312-1.434 2.281-3.157.253-.449.762-1.306 1.125-1.906.364-.6.656-1.216.657-1.375 0-.158.303-.869.656-1.594.353-.724 1.041-2.742 1.531-4.468.49-1.727 1-3.437 1.156-3.813.353-.844.355-.814-.031-.812-.175 0-.655.276-1.094.625-.647.509-2.032 1.139-2.906 1.28-.219-.083-.064-.328.656-1.062.749-.761 1.108-1.37 1.844-3.093 1.167-2.733 1.682-4.494 2.531-8.407.246-1.131.577-3.441.688-5 .046-.65.152-2.176.25-3.406.23-2.898.23-5.5 0-5.5-.099 0-.377.326-.625.719-.43.68-1.868 1.844-2.281 1.844-.284 0-.231-.753.093-1.375.155-.297.348-1.11.438-1.813.09-.703.256-1.875.375-2.625.147-.93.201-2.676.125-5.469-.146-5.304-.39-7.458-1.063-9.906-.7-2.552-.876-3-1.187-3-.304 0-.947.996-1.094 1.688-.143.669-.508.966-.844.687-.379-.315-.919-2.133-1.656-5.562-.79-3.678-1.177-5.188-1.75-6.97-.575-1.785-2.562-5.84-3.406-6.937-.27-.35-.663-.87-.844-1.156-.388-.61-.51-.498-.938.719-1.075 3.067-1.073 3.114-1.437 2.812-.141-.117-.281-.55-.281-.937 0-2.024-2.246-6.468-5.032-9.969-1.025-1.288-3.462-3.602-5.093-4.812-.567-.421-1.185-.941-1.375-1.157-.612-.69-.73-.476-.594 1.25.083 1.058.086 1.625-.031 1.625-.18 0-.338-.148-1.407-1.625-.577-.797-2.826-2.775-4.406-3.875-.69-.48-.988-.6-1.094-.437-.079.123-.125.858-.125 1.656 0 1.899-.244 1.977-1.562.438-1.743-2.035-4.062-4.236-4.938-4.72-.717-.395-2.28-1.03-2.968-1.187-.323-.073-3.066-.937-3.375-1.062-.152-.061-.279-.08-.344-.063zm-5.906 1.437c.35-.048.746.034 1.468.25a13.24 13.24 0 0 0 1.75.375c.653.083.875.201.875.438 0 .216-.276.389-.875.562-.475.137-.955.274-1.062.313-.107.038-.47-.197-.813-.5-.344-.305-.936-.594-1.312-.657-.697-.116-.891-.49-.375-.687.11-.043.227-.078.344-.094zm-39.22.5c.46.043.226.376-.437.594a7.639 7.639 0 0 0-1.375.656c-.73.459-.919.48-2.03.219-.839-.196-1.16-.436-.907-.688.35-.348 3.592-.889 4.75-.781zm49.407.938c.05 0 .724.336 1.5.75.776.413 1.611.861 1.875 1 .646.339 2.875 2.84 2.875 3.218 0 .056-.248.172-.562.282-1.573.548-2.579-.076-4.438-2.813-.568-.836-1.102-1.572-1.187-1.625-.164-.1-.218-.812-.063-.812zm-59.875.593c.22.04.252.263-.031.438-.11.068-.51.56-.875 1.125-1.604 2.481-2.432 3.472-3.094 3.656a4.957 4.957 0 0 1-1.219.156c-1.732-.064-1.606-.439.844-2.906 1.133-1.14 2.763-2.104 4.094-2.437a.717.717 0 0 1 .281-.032zm74.188 1.438a1.264 1.264 0 0 0-.47.031c-.764.192-.893 1.356-.218 2.031.656.656 1.396.077 1.313-1.03-.047-.63-.232-.978-.625-1.032zm-18.625.312c.273-.009.463.003.5.063.05.081.167.113.25.062.28-.173 1.687.453 2.468 1.094.876.717 2.622 3.107 2.625 3.594.003.42-.065.403-1.343-.25-.6-.307-1.357-.683-1.657-.813-1.402-.605-3.095-1.476-3.312-1.687-.132-.129-.317-.219-.406-.219-.263 0-1.47-1.099-1.47-1.344 0-.194 1.525-.474 2.345-.5zm-52.344.5c.127-.009.28-.014.406 0 .35.04 1.082.089 1.656.094 1.199.011 1.332.208.563.937-.64.607-3.32 2.126-4.5 2.563-.5.185-.994.393-1.094.469-.627.473-2.086 1.239-2.156 1.125-.155-.25.915-1.883 2.125-3.219 1.166-1.287 2.109-1.905 3-1.969zm-17.063.313a1.746 1.746 0 0 0-.5.031c-.962.176-1.183.433-.937 1.094.108.292.336.656.5.781.421.32.988-.107 1.187-.875.18-.691.125-.983-.25-1.031zm83.782.844l1.062 1.218c.58.68 1.384 1.658 1.781 2.157.397.498.839 1.038 1 1.218.494.552 1.307 2.12 1.188 2.313-.062.1-.181.195-.25.187-.241-.027-.66-.22-.75-.343-.05-.068-.506-.352-1-.594-1.303-.638-3.132-2.44-3.375-3.344-.263-.976-.224-1.426.094-2.187zm-80.22.656c.18.04.293.488.376 1.375.146 1.567-.35 2.665-1.688 3.75-.524.425-1.021.781-1.093.781-.072 0-.48.21-.938.5-1.192.752-1.656.864-1.656.406 0-.459.298-1.232.594-1.562.124-.14.305-.372.406-.5.1-.129.87-1.044 1.719-2.063.848-1.019 1.688-2.08 1.875-2.343.17-.243.299-.368.406-.344zm77.813 2.125c.462.068.594.47.594 1.406 0 .937-.02 1.06-.437 1.25-.545.248-.455.247-.907 0-1.22-.668-1.098-2.384.188-2.625a1.71 1.71 0 0 1 .562-.031zm-75.125.5c.722 0 1.22.513 1.22 1.281 0 .388-.096.882-.188 1.125-.311.817-1.497.76-1.938-.094-.496-.959.032-2.312.906-2.312zm85.344.312c.123-.102.256.062.75.625.385.439.714.833.719.907.004.073.4.594.875 1.125 3.603 4.023 6.031 7.565 6.031 8.78 0 .551-.06.53-1.187-.093-.2-.11-.827-.44-1.407-.75-.579-.31-1.204-.736-1.406-.937-.201-.202-.73-.574-1.156-.844-1.104-.7-2.62-2.192-3-2.938-.726-1.424-.92-4.611-.344-5.687a.68.68 0 0 1 .125-.188zm-19.344.813c-.184-.012-.382.114-.625.375-.423.454-.463.826-.156 1.5.173.38.337.45.781.406.47-.046.555-.152.688-.719.12-.515.082-.761-.156-1.125-.189-.287-.347-.426-.532-.437zm-76.812.156c.077-.006.16.068.312.219.505.498.486 3.934-.03 4.937-.69 1.339-.9 1.646-1.813 2.532-.78.755-3.921 3.03-4.188 3.03-.05 0-.447.238-.875.532-.427.294-.985.59-1.25.656-.42.106-.502.061-.5-.312.004-.762.98-2.473 3.031-5.281.222-.304 1.393-1.71 2.594-3.125 1.201-1.416 2.323-2.738 2.469-2.938.126-.173.173-.244.25-.25zm19.937.375c-.193-.019-.406.023-.656.156-.394.211-.478 1.243-.156 1.844.22.41.942.464 1.25.094.383-.462.428-1.478.094-1.813-.175-.175-.338-.262-.532-.281zm67.407 1.781c1.353.035 2.417.535 3.468 1.625.69.715 2.282 2.966 2.282 3.219 0 .043.23.465.53.938.3.472.563.963.563 1.093 0 .331-.37.271-.906-.125-.941-.695-5.917-3.093-6.406-3.093-.16 0-2.194-1.477-3.313-2.407-.29-.242-.47-.551-.406-.656.156-.253 2.852-.628 4.188-.594zm-77.657.688c.293-.017.556-.018.688 0 .263.036 1.013.092 1.687.156.816.077 1.22.22 1.22.375 0 .455-1.546 1.692-3.157 2.531-.9.469-1.7.91-1.75.969-.05.06-.688.404-1.438.75-.75.347-1.506.73-1.656.844-.15.114-.656.409-1.156.687-.5.279-1.138.784-1.406 1.094-.405.468-.5.496-.594.25-.143-.37.228-1.322 1.031-2.562.34-.524.828-1.288 1.063-1.688.596-1.016 1.003-1.447 2.28-2.375.903-.655 1.331-.812 2.25-.937.313-.043.646-.078.938-.094zm84.844 2c.132-.01.343.195.563.625.213.417.549.914.75 1.125.2.21.581.681.843 1.031.263.35.846 1.073 1.282 1.594.435.52.72 1.02.656 1.125-.256.414-1.022.017-2.188-1.094-.44-.42-.812-.859-.812-1 0-.14-.075-.25-.156-.25-.18 0-.875-1.707-1.032-2.5-.086-.44-.038-.647.094-.656zm-92.5.219c.29 0 .219.567-.281 2.156-.485 1.54-1.42 2.931-2.406 3.625-2.036 1.432-2.505 1.009-.875-.781 1.027-1.13 3.375-4.443 3.375-4.782 0-.106.087-.218.187-.218zm104.906 1.406c-.41.052-.755.455-.875 1.094-.08.427-.018.748.188 1.062.202.308.46.438.812.438.649 0 .942-.317 1.063-1.22.081-.606.012-.764-.406-1.093-.275-.216-.535-.313-.782-.281zM16.938 19.382c-.068.017-.121.049-.219.093-.25.114-.642.455-.844.781-.333.54-.326.663-.093 1.22.203.486.356.6.75.593.994-.018 1.548-1.49.906-2.406-.18-.257-.296-.333-.5-.282zm120.094 3.75c.149-.008.216.41.468 2.093a19.7 19.7 0 0 0 .657 2.75c.453 1.352.617 1.732 1.437 3.532 1.268 2.781 2.7 7.058 2.844 8.468.034.333-.024.621-.125.657-.317.11-3.536-3.205-4.344-4.47-1.753-2.743-2.344-4.51-2.531-7.593-.125-2.06.542-4.595 1.406-5.312.08-.066.138-.123.188-.125zm-16.657.125c-.269-.012-.538.07-.687.25-.284.342-.3 1.184-.031 1.687.32.598 1.032.538 1.375-.125.337-.652.35-1.079.03-1.5-.145-.192-.417-.301-.687-.312zm9.532 0c.346-.014.721.073.937.312.332.367.394 1.573.125 2.281-.187.494-.464.628-1.062.532-.966-.157-1.477-1.816-.844-2.72.178-.254.497-.392.844-.405zm-98.532.843c-.765.105-1.182 1.135-.656 1.938.323.493.473.55 1.125.375.761-.204.652-2.14-.125-2.313a.95.95 0 0 0-.344 0zm-10.218.282c.143-.045.286-.017.562.062.356.102.713.365.844.625.307.608.294 1.66-.031 2.125-.294.42-.691.566-1.313.469-.984-.154-1.32-1.99-.531-2.906.193-.225.325-.331.469-.375zm-6.657.53c.213.006.485.394.875 1.188.594 1.207.625 1.278.625 3.594 0 2.813-.263 3.725-1.625 6.219A22.657 22.657 0 0 1 10.5 41.1c-.575.575-1.156 1.063-1.28 1.063-.135 0-.22-.254-.22-.594 0-.963 1.055-4.616 1.813-6.25.393-.847.719-1.588.719-1.625 0-.037.246-.587.53-1.219 1.225-2.711 1.806-4.57 2-6.406.084-.783.225-1.16.438-1.156zm111.625.907l1.375.688c2.217 1.111 3.035 2.302 4.625 6.937.263.766.47 1.44.47 1.5 0 .288-.474-.112-2.75-2.406-2.368-2.385-2.465-2.533-3.126-4.125-.378-.911-.69-1.866-.656-2.125zm-100.53 1.063c.259 0 .091 1.065-.313 1.906-.242.501-.63 1.28-.844 1.75-.263.574-1.196 1.687-2.844 3.344-1.348 1.354-2.486 2.437-2.531 2.437-.186 0-.027-.53.656-2.5 1.22-3.521 1.926-4.73 3.344-5.625.804-.507 2.355-1.312 2.531-1.312zm107.343.718c.077 0 .229.802.344 1.782.201 1.718.391 2.381 1.125 3.937.188.4.519 1.122.718 1.594.2.471.6 1.241.907 1.687.307.446.562.937.562 1.094 0 .33-.126.31-.687 0-.938-.532-1.431-1.594-2.032-2.562-.49-.733-.994-1.62-1.125-2-.41-1.196-.26-5.532.188-5.532zM18.625 28.882c.179 0 .532 2.1.532 3.156 0 1.09-.724 3.196-1.407 4.062a11.73 11.73 0 0 0-1 1.594c-.253.502-.733 1.134-1.062 1.406-.65.538-1.063.636-1.063.25 0-.134.583-1.26 1.282-2.5.698-1.24 1.248-2.336 1.25-2.437 0-.102.174-.47.375-.844.203-.379.487-1.574.656-2.687.167-1.1.365-2 .437-2zm58.625.093c.205-.078.274.17.282 1.219.005.722-.005 1.763 0 2.312.005.55.01 1.27 0 1.594-.012.375-.12.594-.282.594-.38 0-.389-.233-.312-3.031.055-1.998.114-2.612.312-2.688zm-1.53.063c.262-.056.316.84.218 3-.114 2.497-.29 3.214-.531 2.25-.13-.518.035-5.036.187-5.188.046-.046.088-.054.125-.062zm-1.47.031c.1 0 .185.094.188.219.002.125.009 1.359.031 2.75.03 1.89-.017 2.567-.187 2.625-.176.059-.22-.596-.22-2.781 0-1.768.075-2.813.188-2.813zm70.657 6.969a.879.879 0 0 0-.407.093c-.413.222-.812 1.036-.812 1.594 0 .128.207.47.469.781.531.632.99.612 1.562-.062.732-.862.072-2.412-.812-2.406zM6.313 37.632c-.182.009-.364.135-.656.406-.417.463-.24 2.634.78 2.531 1.167-.305 1.515-1.916.563-2.594-.335-.238-.505-.353-.687-.343zm125.844 0c-.265-.023-.554.108-.813.437-.448.57-.498.996-.125 1.719.523 1.011 1.75.428 1.75-.844 0-.776-.37-1.274-.812-1.312zm-112.532 1.28c-.199-.017-.446.052-.75.25-.529.347-.598 1.214-.156 1.845.158.225.477.406.719.406.856 0 1.298-1.298.719-2.125-.168-.24-.332-.358-.532-.375zm120.72 2.5c1.057 0 1.551 1.646.78 2.626-.815 1.037-2 .352-2-1.156 0-.983.4-1.47 1.22-1.47zm-4.563.563c.344 0 2.134 2.215 2.906 3.594.563 1.005.695 1.41.937 3.438.277 2.309.255 4.703-.093 8.187-.203 2.029-.45 2.214-1.063.844-.444-.995-1.527-3.889-1.875-5a5.975 5.975 0 0 0-.344-.844c-.25-.469-.533-2.635-.75-5.594-.2-2.73-.094-4.625.282-4.625zm9.53.532c.13.048.146.74.22 3.03.057 1.793.202 3.888.312 4.688.216 1.565.514 9.367.406 10.719-.036.452-.13.844-.218.844-.333 0-1.149-1.572-1.72-3.344-.803-2.498-1.085-4.821-.937-7.781.157-3.133 1.054-7.133 1.782-8.031.07-.087.113-.142.156-.125zm-69.437.5c1.215-.016 2.428-.004 2.47.062.042.069-.033.211-.157.313-.32.26-4.591.288-4.75.03-.069-.11-.106-.237-.063-.28.068-.068 1.286-.11 2.5-.125zm-64.968.062c.3-.029.645.06.906.25.236.173.336.512.375 1.156.05.815.012.983-.406 1.313-.83.428-2.316-.782-1.594-2.313a.977.977 0 0 1 .719-.406zm4.75.531c.29 0 .437.898.437 2.657 0 3.689-.815 7.75-2.187 11.156-.383.95-.749 1.937-.813 2.187-.064.25-.275.657-.469.907-.273.35-.37.397-.437.187-.267-.842-.52-4.064-.531-6.781-.015-3.274.252-4.845 1.125-6.875.519-1.208 2.386-3.438 2.875-3.438zm126.812 0c.09 0 .09.688 0 1.594-.238 2.4-.182 8.643.094 10.188.17.948.2 1.392.062 1.53-.138.14-.32-.052-.593-.687-.728-1.694-.934-2.836-1.032-5.718-.08-2.37-.042-3.026.22-3.844.57-1.79 1.088-3.063 1.25-3.063zm-136.406.72c.316 0 .918 1.989 1.844 6.094.218.967.216 4.177 0 6.062-.113.978-.504 2.517-1.125 4.344-.53 1.558-1.07 2.867-1.188 2.906-.529.177-.526-2.786.031-10.812.142-2.036.258-3.78.25-3.844-.09-.721.068-4.75.188-4.75zm2.844.813c.248.08.279.733.437 1.03.814 1.528 1.094 3.086 1.094 5.876 0 1.83-.088 2.72-.344 3.594-.186.635-.948 1.875-.531 1.875.417 0-.342.895-.5 1.093-.265.332-.253.206-.125-1.718.183-2.76.18-8.662 0-10.375-.048-.455-.593-1.21-.156-1.344.046-.014.09-.043.125-.032zm67.468.156c.268-.18.337.81.313 3.875-.026 3.242-.144 4.137-.5 3.781-.197-.197-.138-7.225.062-7.531a.394.394 0 0 1 .125-.125zm1.407.031c.102-.065.218 1.119.28 3.563.05 1.949.017 3.668-.062 3.843-.4.893-.484.139-.437-3.53.032-2.504.116-3.811.219-3.876zm-4.344.094c.02-.005.067 0 .094 0 .115 0 .156 1.389.156 3.812 0 2.424-.041 3.844-.156 3.844-.227 0-.224.145-.22-3.656.005-3.582-.016-3.962.126-4zm1.5.062c.231-.077.248.34.281 4.969.013 1.838-.02 2.506-.187 2.563-.125.041-.294-.023-.344-.157-.05-.133-.062-1.838-.031-3.781.039-2.533.125-3.542.28-3.594zm1.312 9.375l3.97.125c.04.203-3.61.355-4.063.313-.025-.025-1.222-.074-2.688-.094-1.466-.02-2.687-.107-2.687-.187s.806-.122 1.78-.125c.976-.003 2.639-.025 3.688-.032zm59 1.344c-.411-.031-.841.177-1.03.531-.241.449-.136 1.675.187 2.063.236.284.865.35 1.218.125.674-.428.7-2.237.032-2.594a1.072 1.072 0 0 0-.407-.125zm14.97 1.281c-.268.026-.538.204-.782.532-.495.664-.274 1.937.406 2.28.25.127.505.218.563.22.29.007.875-.884.968-1.5.089-.583.031-.782-.343-1.157-.277-.277-.546-.4-.813-.375zm-134.032.313c-.2.035-.403.178-.563.406-.322.46-.373 1.634-.093 2.156.13.243.38.344.812.344.509 0 .68-.095.906-.531.369-.713.358-1.051-.093-1.781-.281-.455-.637-.653-.969-.594zm52.25 1.281c.104-.016.218.11.344.344.242.453.514 30.937 0 30.937-.4 0-.461.422-.625.157-.142-.229-.11-30.437.03-31 .067-.265.147-.422.25-.438zm17.5 0c.15-.022.358.054.594.063h.53V92.6l2.157.032c1.855.044 2.112.092 2.063.343-.05.25-.44.309-2.875.344l-2.844.031-.125-2c-.067-1.11-.109-8.798-.094-17.062.025-13.526-.054-15.123.594-15.219zm-2.781.031a.349.349 0 0 1 .218.094c.295.295.417 30.425.125 30.969-.226.422-.469.422-.687.031-.216-.385-.032-30.798.187-31.031.051-.054.09-.072.157-.063zm-17.72.125c.322.01.623.113.626.25.003.125.004 7.7 0 16.844-.005 11.245-.007 16.813-.188 16.813-.158 0-1.246.187-2.78.187-3.316 0-3.607-.051-3.532-.437.051-.265.356-.292 2.375-.313 1.278-.013 2.364-.051 2.406-.094.043-.042.11-7.453.156-16.468.047-9.016.125-16.493.188-16.594.083-.135.429-.198.75-.188zM.876 59.57c-.125.027-.254.114-.406.281-.73.805-.587 2.15.281 2.657.442.257.488.242.907-.22.804-.885.665-2.267-.282-2.624-.228-.086-.374-.12-.5-.094zm75.907.125c.094-.058.227.084.28.313.079.333.017 26.46-.062 26.625-.012.025-.118.062-.218.062-.243 0-.243-26.85 0-27zm-3.188.125c.046-.056.094.042.156.281.068.26.038 25.232-.03 26.188-.01.125-.088.219-.188.219-.12 0-.188-4.59-.188-13.375 0-9.698.052-13.071.25-13.313zm69.063 1.531c.085-.004.155.015.25.032.794.142 1.128.543 1.125 1.375-.003.84-.084 1.002-.72 1.437-.584.4-.657.405-1.187-.125-.341-.342-.437-.654-.437-1.281 0-.88.371-1.41.969-1.438zm-5.375.063c.234 0 2.03 1.798 2.03 2.031 0 .088.195.489.438.875 1.24 1.963 1.345 5.222.282 8.469-.328 1-.705 2.037-.844 2.312-.14.275-.313.5-.406.5-.365 0-.505-.745-.72-3.812-.121-1.75-.353-4.22-.5-5.469-.436-3.731-.5-4.906-.28-4.906zm-15.375 1.312a2.323 2.323 0 0 1 2.312 2.313c0 1.269-1.043 2.281-2.312 2.281a2.27 2.27 0 0 1-2.282-2.281c0-1.27 1.012-2.313 2.282-2.313zm-92.5.032c.62-.025 1.246.17 1.75.593 1 .843.9 2.757-.188 3.532-.685.487-1.9.625-2.656.28-1.173-.534-1.491-2.698-.563-3.687.433-.46 1.037-.694 1.657-.718zm-20.75.312c.136.005.253.088.468.219.43.26.516.43.563 1.375.037.748-.043 1.135-.219 1.281-.139.115-.482.253-.781.313-.69.137-1.093-.225-1.25-1.157-.15-.884.104-1.546.719-1.875.213-.114.363-.161.5-.156zm5.625.125c.061-.017.107-.015.125.031.097.26-.478 5.653-.657 6.188-.05.15-.118 1.094-.156 2.094-.038 1-.15 2.424-.25 3.156-.1.732-.187 1.638-.187 2.031 0 .501-.066.719-.25.719-.516 0-.796-.597-1.813-3.969-.631-2.094-.54-4.224.281-6.719.31-.943.613-1.398 1.657-2.468.674-.691 1.065-1.013 1.25-1.063zm15.968.031c-.449.43-1.152 1.67-1.03 2.032 1.146.215 3.12.951 2.03.406-1.09-.545-1.994-.373-1-2.438zm118.032 2c.16 0 .05 1.812-.25 4.094-.61 4.633-.793 5.667-1.282 7.375-.3 1.05-.947 2.9-1.468 4.125-1.36 3.195-1.792 3.015-2.125-.969-.16-1.92.029-3.791.687-6.968.477-2.3 1.399-4.537 2.375-5.72.637-.77 1.874-1.937 2.063-1.937zm-145.157 2c.221 0 2.082 2.008 2.438 2.625.937 1.628 1.41 2.695 1.687 3.844.17.7.423 1.6.563 2 .695 1.995.727 6.6.062 8.75-.298.965-.613.857-1.25-.375-1.638-3.173-2.567-6.922-3.343-13.469-.313-2.639-.358-3.375-.157-3.375zm140.47.719c.028.021.05.078.062.156.03.209-.086.853-.25 1.438-.692 2.465-1.726 6.581-1.907 7.594-.107.6-.26 1.23-.312 1.406-.187.636-.384.298-.5-.813-.114-1.082.071-3.466.437-5.531.191-1.076.654-2.053 1.72-3.5.448-.61.663-.813.75-.75zM7.812 69.85c.29-.022 1.042 1.062 1.875 2.688.7 1.367.793 1.73.937 3.344.09.996.184 2.531.188 3.406.004.877-.093 1.562-.188 1.562-.272 0-.344-.197-.562-1.625-.113-.74-.32-1.794-.469-2.343-.149-.55-.325-1.263-.406-1.563-.081-.3-.463-1.388-.813-2.437-.677-2.03-.847-3.01-.562-3.032zm127.875 3.219c-.211.009-.42.128-.594.344-.41.506-.446 1.764-.062 2.312.258.37.732.438 1.187.157.35-.216.554-1.491.344-2.094-.169-.484-.524-.734-.875-.719zM15.75 74.882c-.126.021-.251.139-.468.343-.595.559-.644 1.566-.094 2.157.529.567 1.263.474 1.594-.22.352-.738.083-1.732-.563-2.093-.23-.128-.342-.209-.469-.187zm109.282 0c.384 0 .415.08.5.843.052.475.096 4.67.062 9.313-.055 7.65-.115 8.491-.406 9.031-.306.568-.637.863-.813.688-.099-.1.023-19.336.125-19.657.04-.125.292-.218.532-.218zm-8.875.468a.38.38 0 0 1 .218.063c.203.125.252 2.098.25 11.187-.002 10.912-.004 11.036-.375 11.407-.335.335-.365.33-.468.062-.185-.48-.003-22.466.187-22.656.047-.047.113-.06.188-.063zM35 75.975a.768.768 0 0 1 .282 0c.324.063.343.494.343 11.032 0 6.03-.053 11.018-.125 11.062-.168.104-.881-.579-.906-.875-.105-1.262.07-21.008.188-21.125a.445.445 0 0 1 .218-.094zm-8.562.282c.184-.049.423.016.531.125.137.136.188 3.135.188 9.78 0 6.167-.04 9.616-.157 9.688-.1.062-.402-.1-.656-.375-.154-.166-.386-.288-.469-.5-.945-2.432.047-5.203.063-7.812.061-10.273.073-10.795.5-10.906zm67.625 2.53a.719.719 0 0 1 .312.032c.374.098.402.192.407 1.563.031 8.852-.018 22.564-.094 22.687-.136.22-.764.2-.906-.031-.11-.176-.153-7.204-.094-19.188.013-2.606.086-4.823.156-4.937.036-.057.123-.107.219-.125zm14.344.063l.03 1.594c.035 7.014-.028 21.582-.093 21.688-.104.167-1.468.219-1.625.062-.159-.159-.129-22.2.032-22.781.104-.38.267-.454.906-.5zm-51.594.032c.227-.035.445.25.531.78.062.383.104 5.974.063 12.438-.078 12.27-.102 12.422-.844 12-.304-.172-.325-.86-.313-12.25.008-7.188.085-12.291.188-12.562.098-.259.239-.386.375-.406zm-13.125.437c.292.003.594.063.687.156.111.111.157 22.953 0 22.97-.05.004-.358.128-.718.187-.505.081-.694.01-.782-.22-.143-.374.04-22.728.188-22.968.056-.091.333-.128.625-.125zm92.531 1.75c.048-.006.107.018.188.094.129.121.215.753.218 1.562.008 2.131-.68 3.742-2.156 5.125-.427.4-.99 1.163-1.25 1.688-.259.525-.515.969-.562.969-.048 0-.148-.23-.25-.5-.127-.332-.152-1.081-.032-2.282.157-1.56.268-1.879.844-2.812.361-.585 1.134-1.622 1.719-2.281.585-.66 1.108-1.306 1.156-1.438.033-.09.077-.12.125-.125zm4.938.375c.254-.005.524.118.812.406.572.572.618 2.057.094 2.532-.473.427-1.605.384-1.844-.063-.326-.61-.227-1.91.188-2.437.235-.3.495-.433.75-.438zm7.906.281l-.438.5c-.581.677-.567 1.777.032 2.375.574.575.703.562 1.28-.125.378-.448.481-.736.438-1.312-.046-.623-.152-.765-.687-1.063zm-133.688.907c.335-.041.368.537.563.812.32.454.988 1.319 1.469 1.906.985 1.204 1.642 2.38 1.843 3.313.156.717.758 2.969 0 2.969-.706 0-.35.619-.906-.282-.89-1.443-1.006-1.604-1.312-1.937-.608-.662-1.41-1.7-1.657-2.156-.335-.622-.486-3.408-.218-4.094.069-.177.03-.508.218-.531zm-4.968.78c.184.003.35.025.5.126.648.433.841 2.066.312 2.719-.443.546-1.29.647-1.719.218-.31-.31-.464-1.287-.343-2.156.074-.532.696-.913 1.25-.906zm-8.438.72c-.885 0-1.315 1.919-.594 2.687.642.683 1.449.456 1.782-.5.386-1.11-.194-2.187-1.188-2.187zm138.844 2.375c.502 0 .447.436-.469 1.093-1.397 1.004-3.072 3.517-3.75 5.625-.231.719-.523 1.282-.656 1.282-.247 0-1.156-1.778-1.156-2.25 0-.56 1.395-2.606 2.5-3.657.63-.6 1.574-1.319 2.093-1.593.641-.34 1.136-.5 1.438-.5zm-65.656.656c.327-.062.712.154 1.312.656l.875.719 1.063-.438c1.296-.56 1.644-.442 1.28.438-.137.334-.579.951-.968 1.375-1.125 1.224-.923 1.35 1.844 1.25 1.276-.047 2.4-.086 2.5-.094.1-.008.55-.007 1 .031l.812.094.063 1c.05.955.016 1.047-.375 1.063-.23.009-1.815.032-3.531.062-1.717.03-3.19.1-3.282.156-.246.153-.593-.267-.593-.718 0-.217-.175-.59-.375-.844s-.344-.647-.344-.844a.762.762 0 0 0-.25-.531c-.35-.29-.656.093-.656.812 0 .324-.1.634-.188.688-.087.054-.193.31-.25.594-.034.171.042.42-.094.53-1.046.856-2.71-.026-4.062-.03-1.352-.004-3.081.929-4.063 0-.231-.22-.044-.62-.062-.938-.018-.318-.245-.733-.031-.969.175-.193.52-.02.78-.031.431-.018.926-.016 1.126 0 .967.08 4.34.005 4.5-.094.1-.062-.224-.442-.719-.875-.67-.585-.952-1.006-1.125-1.625-.128-.457-.183-.879-.125-.937.059-.059.47.07.906.281 1.061.514 1.576.499 1.594-.031.008-.225.043-.313.094-.188.136.337.422.288.781-.156.185-.229.366-.369.563-.406zM10.75 88.444c.179-.034.525.071 1.188.344 1.487.61 3.617 2.585 4.406 4.094.179.341.501.646.531 1.03.029.368-.225.683-.343 1.032-.461 1.36-.672 1.641-.97 1.344-.123-.124-.218-.333-.218-.469 0-.582-1.61-3.569-2.406-4.469-.174-.196-.355-.499-.406-.656-.052-.157-.507-.556-1-.906-.974-.69-1.116-.942-.907-1.281.026-.042.066-.052.125-.063zm119.5.25c.694 0 3.986 5.959 4.875 8.813 1.065 3.416 1.35 5.216 1.25 8.062l-.062 2.188-.938.968c-.515.545-.996 1.206-1.062 1.469-.162.644-.481.783-2.188.938-.8.072-1.525.187-1.625.25-.1.062-.535.2-.968.312-.983.255-1.055.134-.782-1.437.282-1.62.258-4.343-.062-5.844-.412-1.937-.702-2.742-1.719-4.875-1.012-2.125-1.021-2.172-.125-3.25.752-.905 1.766-3.186 3.063-7 .11-.325.269-.594.343-.594zm15.094.188c.208.012.344.084.344.218 0 .127-.222.512-.469.875-.247.363-.641 1.134-.906 1.719-.265.585-.785 1.688-1.125 2.438-.34.75-.668 1.475-.75 1.625-1.081 1.968-1.459 2.637-2.063 3.53a17.25 17.25 0 0 1-1.28 1.657c-1.096 1.194-1.285.791-1.032-2.344.27-3.361 1.066-6.045 2.062-7.031 1.094-1.082 1.872-1.519 4.438-2.531.297-.118.574-.169.781-.156zM21.407 90.194c.04-.01.066-.017.093 0 .105.065.334.615.5 1.188.45 1.548 1.911 4.992 2.25 5.312.682.643 1.47 1.822 1.47 2.188 0 .216-.222.754-.47 1.218-.9 1.688-1.515 3.388-2 5.438-.375 1.585-.397 5.41-.031 6.625.236.782.235.887-.062 1.156-.197.178-.37.203-.438.094-.102-.165-.493-.237-2.719-.469-.4-.042-.85-.107-1-.156-.15-.05-.513-.13-.781-.188-.278-.06-.524-.28-.594-.5-.067-.212-.557-.854-1.093-1.437-.537-.584-1.028-1.268-1.094-1.532-.212-.842-.194-3.407.062-5.375.44-3.366 2.605-9.335 3.938-10.906.212-.25.508-.744.687-1.094.418-.815 1-1.493 1.282-1.562zm-15.188.688c.289-.001.706.1 1.188.28 2.503.944 3.161 1.32 4.03 2.282 1.387 1.533 2.105 4.088 2.157 7.656.02 1.4-.03 2.207-.156 2.25-.223.078-.906-.65-2.094-2.218-1.185-1.565-2.02-3.03-2.875-5-.713-1.645-1.981-3.907-2.531-4.563-.357-.425-.2-.686.281-.687zm75.938 3.406c7-.02 9 .032 9 .219 0 .09-.357.182-.782.187-.425.005-3.567.04-7 .094-5.653.089-6.243.075-6.187-.188.055-.256.628-.3 4.969-.312zm-15.407.093c4.02-.033 7.938.062 7.938.22 0 .117-2.634.176-7.5.187-7.689.017-9.93-.166-4.344-.344 1.216-.039 2.566-.051 3.906-.063zm-3.093 1.25c.296-.015.575.015.78.22.538.533-.005 1.523 0 2.28.048 6.41.09 6.188-.53 6.188-.452 0-.508-.225-.438-1.813.033-.75-.043-1.9-.156-2.562-.171-1.005-.266-1.195-.531-1.125-.242.063-.423-.185-.782-.969-.489-1.069-.885-1.24-1-.437-.034.242-.148.563-.25.687-.112.137-.134.656-.062 1.344.068.653.024 1.54-.094 2.062-.112.5.234 1.875-.312 1.875-.93 0-.334 1.292-.625 1-.169-.168-.17-8.113 0-8.343.077-.105 1.134-.188 2.468-.188.483 0 1.038-.192 1.532-.219zm18.406.063c.234 0 .281.536.281 3.875 0 2.834-.062 3.917-.219 3.969-.432.144-.528-.66-.437-4.219.078-3.07.145-3.625.375-3.625zm3.844 0c.035-.024 1.238.007 2.687.062l2.656.094v3.844c0 3.696-.023 3.812-.375 3.812-.299 0-.4-.159-.5-.906-.066-.5-.198-1.344-.312-1.844a6.08 6.08 0 0 1-.094-1.75c.085-.684.017-.994-.375-1.75-.492-.947-.812-1.07-.812-.312 0 .233-.106.476-.25.531-.145.056-.383.445-.5.875-.2.729-.201.756-.375.375-.244-.534-.375-.51-.75.125-.243.41-.31.968-.313 2.5-.003 2.057-.116 2.507-.531 2.25-.193-.119-.222-.967-.219-4 .002-2.117.027-3.882.063-3.906zm-13.844.062c.238.008.317 1.083.281 3.782-.015 1.117-.63 2.4-.031 3.343.086.137.29.152.437.22.48.218.745-.035.75-.657.002-.255.166-.313.813-.313.444 0 .876.088.937.188.062.1-.068.187-.28.187-.298 0-.39.094-.345.407.052.366.17.405 1.063.406.803 0 1.012.056 1.062.312.056.283-.107.325-1.53.344-.883.012-1.682-.002-1.782-.031a2.604 2.604 0 0 0-.563-.063c-.2.001-.485.081-.656.157-.233.103-.359.007-.437-.313-.142-.577.03-7.749.187-7.906.041-.041.06-.064.094-.063zm5.531 0c.415 0 .493.611.375 3.063-.061 1.28-.19 2.377-.281 2.469-.243.246-.345-.14-.438-1.875-.045-.85-.119-1.856-.187-2.219-.136-.726.12-1.438.531-1.438zm2.094 0c.2-.01.249.876.219 3.688-.02 1.921-.082 3.52-.125 3.562-.043.044-.142-.06-.22-.25-.158-.387-.129-6.776.032-6.937.035-.035.065-.06.094-.063zm5.094 0c.358 0 .36.12.312 3.875-.034 2.653-.109 3.86-.25 3.907-.369.122-.406-.49-.406-4.157 0-3.51-.012-3.625.344-3.625zm-19.344.032c.225-.035.511.097.75.093.834-.011.957.026.969.344.09 2.556.062 7.521.062 7.781 0 .271-.248.323-.906.282-.451-.029-.905-.098-1-.157-.103-.063-.156-1.767-.125-4.187.017-1.354-.894-3.104.062-4.063a.31.31 0 0 1 .188-.093zm4.062.031a.322.322 0 0 1 .375.125c.079.127.175 1.94.188 4 .02 3.027-.036 3.802-.25 4.094-.26.355-.271.352-.438-.094-.093-.25-.168-2.158-.156-4.25.018-3.013.087-3.81.281-3.875zm4.75 0c.08-.024.19.015.313.094.257.163.27.252.125 3.156-.079 1.565-.19 2.148-.375 2.219-.38.145-.465-.456-.406-3.063.038-1.715.105-2.334.343-2.406zm49.563 3.469c.093-.003.195.006.312.031.935.203 1.067.67.344 1.25-1.101.885-2.457 2.37-3.094 3.375-.371.587-1.105 1.529-1.593 2.094-.489.565-1.007 1.09-1.188 1.187-.572.306-.606-.16-.062-.968.281-.42.653-1.057.843-1.407.191-.35.501-.824.688-1.062.187-.239.344-.512.344-.594 0-.285 1.702-2.575 2.437-3.281.476-.457.689-.616.969-.625zm-96.281.375c.15 0 .313.059.562.187.991.513 1.56 1.315 2.813 3.907.362.75.896 1.848 1.187 2.437.291.589.531 1.22.531 1.406 0 .186-.08.349-.156.344-.238-.015-1.7-1.93-2.25-2.937-1.152-2.108-1.94-3.162-2.719-3.594-1.223-.68-1.36-1.118-.5-1.563.247-.127.382-.188.532-.187zm98.218 2c1.23-.12 1.073.376-.812 2.187-.95.912-1.933 1.925-2.156 2.25-.42.612-.62.717-.813.407-.187-.303 1.454-3.128 2.313-3.97.595-.583.977-.827 1.468-.874zm-100.312.719c.446-.019 1.134.264 1.594.75.569.601 2.125 3.325 2.125 3.718 0 .573-.223.438-1.063-.718-.433-.597-.834-1.094-.906-1.094-.248 0-2.188-2.023-2.188-2.281 0-.241.17-.364.438-.375zm47 2.625c.996-.101 2.131.312 3.156.312h4.094v1.125c0 1.75-.008 1.736 1.75 1.594l1.5-.125 1.25.812c2.336 1.537 1.787 1.43 7.844 1.313 2.97-.057 5.543-.134 5.718-.188.507-.155.37.355-.312 1.25-.835 1.095-1.031 1.455-1.031 2.063 0 .635-.454 1.344-.875 1.344-.172 0-.495-.156-.72-.313-.374-.263-.458-.24-1 .094-.69.426-3.134 1.108-5.562 1.562-2.293.43-2.135.404-6.312.719-3.312.25-10.197.455-12.25.344-3.648-.197-8.273-.955-10.344-1.688-.55-.194-1.219-.402-1.469-.437-.759-.108-1.452-.507-1.53-.906a24.786 24.786 0 0 1-.157-1.063c-.058-.43-.342-.992-.75-1.469-.358-.417-.625-.814-.594-.906.03-.092.66-.168 1.406-.156 1.55.025 5.395.02 7.532 0 .797-.007 1.566-.087 1.687-.188.121-.1.94-.526 1.844-.968.548-.269 1.062-.674 1.656-.813 1.273-.298 2.6-.026 3.906-.031h3.938l-.063-.5-.062-.469H73.75c-1.615 0-2.968-.063-3.03-.125-.063-.062.064-.512.312-1 .15-.296.186-.701.468-.875.291-.179.606-.279.938-.313zm54.656.593c.992 0 1.515 1.5.813 2.313-.566.654-1.05.647-1.594 0-.407-.483-.472-.679-.375-1.219.132-.734.538-1.094 1.156-1.094zM25 106.32c1.055 0 1.553 1.106 1.032 2.25-.116.255-.325.469-.5.469a2.1 2.1 0 0 0-.594.093c-.768.295-1.299-1.249-.781-2.25.231-.448.42-.562.843-.562zm85.532 1.531c.547.023.94.273 1.593.844.645.564.676.7.688 1.625.007.55-.048 1.22-.125 1.5l-.125.5.906-.125c.816-.108.92-.069 1.188.313.626.894.208 2.103-1.22 3.53-.91.912-.939.978-.718 1.376.13.234.215.766.219 1.156.009.982-.635 1.77-2.031 2.469-.626.313-1.344.679-1.594.812-1.094.584-1.259.549-1.875-.343-.372-.538-1.936-.452-2.813.156-.368.255-.743.469-.812.469-.38 0 .013-.596 1.031-1.563 1.654-1.572 2.346-2.496 3.219-4.344.6-1.27.773-1.934.844-2.906.119-1.628-.166-1.539-.75.188-.803 2.37-2.548 5.05-4.875 7.562-1.035 1.116-3.79 3.063-4.344 3.063-.478 0-.422-.538.125-1.344.977-1.44 1.431-2.656 1-2.656-.15 0-.7.698-2 2.593-.146.213-.552.744-.906 1.157-.355.412-.82.963-1.032 1.218-.238.289-.804.56-1.468.75-.589.169-1.158.401-1.282.5-.161.13-.281.046-.406-.281-.255-.672.256-2.414 1.031-3.5.824-1.153 2.075-2.437 2.344-2.437.414 0 1.147-1.363 1.625-3.032.062-.216.41-.622.781-.906.546-.417.824-.523 1.532-.5.517.017 1.026.17 1.218.344.487.44.677.06.813-1.625.083-1.037.247-1.786.625-2.594.75-1.604 1.428-1.95 2.531-1.344.55.302.938.153.938-.375 0-.982.868-1.606 2.875-2.062.545-.124.921-.202 1.25-.188zM43 108.07c.18-.013.36-.02.532 0 1.541.177 3.236 1.433 3.312 2.438.034.452.402.463.719.03.21-.286.629-.362 1.625-.25.068.009.236.257.375.532s.333.644.437.844c.454.869.782 2.333.782 3.437 0 1.266.18 1.57.625 1.125.42-.42 1.093-.634 1.75-.53 1.376.216 1.577.441 2.312 2.624.4 1.188.703 1.585 1.313 1.719.329.072.68.335.906.687 1.454 2.273 1.789 2.848 2.062 3.532.17.424.313 1.014.313 1.312 0 .647-.17.672-1.688.188-1.342-.43-1.625-.675-3.53-3.344-.858-1.2-1.591-2.238-1.626-2.281-.034-.044-.14.015-.25.125-.225.225.353 1.724 1.156 2.906.855 1.257-.004 1.23-2-.063-2.57-1.664-5.902-5.701-6.718-8.156-.167-.5-.35-.999-.438-1.094-.088-.095-.186-.37-.187-.625-.003-.588-.239-1.005-.5-.843-.257.158-.255 1.429 0 2.375.47 1.745 1.483 3.405 3.218 5.218 1.772 1.851 1.987 2.42.657 1.75-1.035-.521-2.049-.488-2.47.063-.704.925-.643.907-1.655.5a15.718 15.718 0 0 0-1.313-.469c-.2-.052-.835-.434-1.406-.844-1.438-1.032-1.807-2.139-1.031-3.125.343-.436.36-.511.125-.687-1.451-1.089-2.076-1.995-2.25-3.156-.176-1.17.173-1.498 1.406-1.375.901.089.917.073.781-.344-.215-.66-.336-1.94-.219-2.406.228-.907 1.616-1.725 2.875-1.813zm94.907.188c-.307.116-.782 1.018-.782 1.5 0 .208.127.576.282.812.204.313.455.438.906.438.564 0 .66-.088.937-.813.285-.745.287-.812 0-1.25-.329-.502-.964-.832-1.343-.687zm-14.72.062c.474-.02.984.134 1.5.469 1.087.704 1.532 1.448 1.532 2.594 0 .528-.142 1.266-.312 1.625-.248.52-.255.654-.063.718.133.044.5.315.813.594.493.441.558.62.53 1.344-.047 1.269-.364 2.062-.968 2.375-.596.308-.679.592-.25.906.16.117.326.556.375 1 .078.711.049.862-.406 1.281-.284.262-.945.618-1.438.782-1.084.359-.951.351-1.156-.032-.19-.356-.219-.42-.219-.969 0-.949-2.005-2.109-3.468-2-.365.028-.712-.043-.782-.156-.072-.117.245-.62.75-1.156.803-.852 1.416-1.799 2.875-4.563.66-1.247.294-1.438-.468-.25-1.392 2.169-5.237 6.084-5.594 5.688-.219-.243-.563-1.347-.563-1.813 0-.279.16-.463.5-.593 1.144-.438 1.231-.611 1.22-2.532-.007-.97-.08-2.1-.157-2.5-.128-.656-.103-.764.375-1.218.291-.277.799-.594 1.125-.688.512-.147.653-.096 1.031.281.241.241.438.608.438.813 0 .678.524.357.906-.531.404-.94 1.086-1.436 1.875-1.469zm-93.655.813c1.123-.079 2.184.522 2.468 1.656.154.613.574.533.72-.125.079-.362.314-.651.687-.844.52-.27.611-.25 1.125.031.305.168.69.5.875.75.318.434.33.556.062 2-.244 1.317-.246 1.64-.031 2.47.236.91.593 1.392 1.469 1.905.308.181.328.25.125.813-.125.346-.22.857-.22 1.125s-.042.5-.093.5c-.666 0-5.024-4.617-5.812-6.156-.305-.595-.528-.717-.72-.407-.184.299 2.555 4.792 3.72 6.094.428.478.304.651-.625.656-2.224.197-2.99 2.861-3.813 3.282-.6.114-1.585-.183-2.25-.688-.709-.538-.78-1.297-.219-2.219.378-.62.348-.937-.093-.937-.366 0-1.114-1.088-1.25-1.813-.16-.853.483-2.171 1.187-2.437.589-.222.616-.345.25-.906-.144-.222-.367-.77-.469-1.22-.158-.7-.104-.907.22-1.53.206-.4.536-.886.75-1.094.567-.554 1.262-.86 1.937-.906zm-16.032.656c-.221.016-.436.17-.687.437-.502.534-.553 1.43-.094 1.938.371.41 1.221.436 1.531.062.122-.146.257-.614.313-1.031.087-.651.062-.806-.313-1.094-.294-.226-.528-.329-.75-.312zm55.282 1.625c-1.663.026-1.75.146-1.75.594 0 .196 1.77.214 8.25.156 4.574-.041 8.215-.126 8.312-.219.473-.456-.346-.558-4.469-.531-2.338.015-5.975.01-8.093 0-.956-.004-1.696-.01-2.25 0zm65.062 1.187c.463-.016.75.006.75.094 0 .36-.943 1.62-2.562 3.437-.932 1.045-1.77 1.958-1.875 2.032-.32.224-.543.144-.875-.313-.395-.543-.419-.776-.032-2.156.415-1.479 1.621-2.713 2.813-2.906a14.775 14.775 0 0 1 1.781-.188zm-58.5.344c-5.018.006-10.03.06-10.125.156-.058.059.165.375 0 .375-.266 0 1.21.285 10.063.188 5.476-.06 10.038-.17 10.125-.25.086-.08.091-.247.03-.344-.058-.095-5.075-.13-10.093-.125zm-56.156 1.344c2.16.03 3.59 1.267 4.156 3.625.19.792.165.93-.219 1.531-.23.362-.504.683-.625.688-.12.004-.44-.29-.718-.657-.28-.366-.675-.848-.875-1.062-1.67-1.789-3.15-3.82-2.938-4.031.056-.056.595-.103 1.219-.094zm94.969 5.562l.937.063c1.354.072 1.855.309 2.156 1.031.344.822.477.885 1.344.625 1.16-.348 2.536.012 3.344.906.76.842.969 1.769.656 2.813-.255.852-1.283 1.937-1.844 1.937-.33 0-.351.07-.218.594.298 1.175.157 2.208-.375 2.906-.454.595-1.087.968-1.438.875-.075-.02-.125.066-.125.157 0 .09-.588.34-1.312.562-1.329.406-4.31.692-4.563.438-.075-.076-.125-.468-.125-.844 0-1.876-1.228-2.873-3.5-2.875-.946-.001-1.275-.294-1.5-1.375-.067-.324-.341-.736-.656-.969-.936-.692-.416-.978 2.281-1.219.7-.062 1.351-.167 1.438-.218.086-.052.711-.097 1.375-.125 3.245-.141 5.288-.33 5.375-.47.299-.484-1.256-.663-3.594-.405-1.19.13-1.542.104-2.125-.157-1.062-.475-1.548-1.571-.594-1.343.629.15.733.158 1.406.062 1.292-.184 1.781-.818 1.688-2.125zm-20.844.188c.034.03-.156.587-.406 1.219-.662 1.67-1.154 3.507-1.375 5.062-.267 1.869-.559 6.147-.47 6.813.27 2.002.684 4.366 1 5.53.368 1.353 1.26 3.293 1.75 3.845.141.157.25.372.25.468 0 .41-3.94 2.719-4.843 2.844-.284.04-1.3.342-2.25.656s-2.069.607-2.469.657c-.4.05-1.081.158-1.53.25-.45.09-1.161.201-1.563.25a5.823 5.823 0 0 0-1.157.28c-.247.094-1.803.176-3.437.188-1.5.023-3.162.179-4.719-.281-.474-.048-1.15-.16-1.5-.25-.35-.09-1.306-.304-2.156-.469-2.782-.539-5.517-1.388-7.094-2.218-1.823-.96-2-1.075-2-1.438 0-.151.298-.939.688-1.75.389-.811.814-1.819.937-2.219.123-.4.295-.838.375-1 .08-.161.313-1.134.531-2.156.35-1.632.397-2.246.313-4.906-.101-3.206-.224-4.42-.5-4.938-.093-.174-.156-.507-.156-.718 0-.212-.451-1.38-1-2.594-.55-1.215-.951-2.268-.875-2.344.075-.076.345-.017.593.125.25.142.57.303.72.375.15.072.468.29.718.469.656.467 3.67 1.417 5.469 1.719 3.405.57 9.93.687 11.812.218.35-.087 1.075-.208 1.625-.25 2.218-.167 8.903-1.653 9.375-2.093a.728.728 0 0 1 .438-.157c.155-.003.862-.29 1.562-.625.7-.334 1.31-.592 1.344-.562zm-54.531.093c.046-.006.116.028.187.094.15.14.125.338-.031.75-.454 1.202.625 2.25 2.312 2.25.44 0 .845-.087.907-.187.17-.278.468-.22.468.093 0 .44-.549 1.156-1.093 1.438-.377.195-.954.237-2.313.156-1.897-.113-3.416.13-3.281.531.051.153.61.216 1.875.188 2.67-.06 7.119.333 8.156.719.76.282.77.269.219.843-.272.284-.638.917-.813 1.407-.106.296-.065.71-.312.906-.332.264-.86.076-1.281.125-.696.08-1.528.26-1.844.406-.714.328-1.313 1.53-1.313 2.594 0 .45-.39.875-.25.875.373 0-1.182.248-1.25.187-.033-.03-.612-.126-1.312-.187-1.585-.138-2.721-.48-3.625-1.094-.385-.26-.774-.469-.844-.469-.07 0-.257-.258-.437-.593-.322-.598-.324-1.561 0-2.625.099-.327.023-.4-.438-.5-.306-.067-.83-.448-1.187-.844-.592-.655-.657-.795-.657-1.813 0-1.376.483-2.32 1.47-2.875.785-.441 1.334-.517 2.562-.312.834.14.852.13 1.156-.469.55-1.085.774-1.25 1.812-1.25.6 0 .98-.076 1.032-.219.029-.079.078-.118.125-.125zm69.906 3.188c.262.005.5.033.719.094.484.133.656.279.656.593 0 .393-.111.441-2.5.72-1.375.16-2.654.342-2.813.405-.162.066-.37-.031-.5-.187-.193-.233-.172-.299.188-.438.236-.09.756-.282 1.156-.437 1.318-.512 2.308-.764 3.094-.75zm-64.906.406c.404-.052 1.038.027 2.03.219 2.055.396 3.157.783 3.157 1.094 0 .124-.426.156-1.187.125-.658-.027-1.201-.046-1.22-.063-.017-.017-.788-.094-1.687-.156-1.698-.117-1.98-.217-1.812-.656.129-.336.314-.511.719-.563zm67.406 2.656c-.217.217.14.616.656.72.31.061.789.25 1.063.437.274.186.95.64 1.5 1 1.107.723 1.211.764 1.375.5.328-.531-.598-1.335-2.125-1.875-.44-.156-1.157-.437-1.594-.594-.438-.157-.826-.237-.875-.188zm-69.563.532c-.42.047-1.277.428-2.812 1.187-1.15.57-1.39.735-1.438 1.156-.031.275.024.5.125.5.102 0 1.169-.594 2.375-1.312 1.417-.843 2.145-1.355 2.032-1.469-.051-.05-.141-.078-.282-.062zm60.282.125c1.785 0 2.669.938 1.968 2.125-.207.352-.33.704-.25.781.08.076.794.19 1.594.25 2.233.165 2.653.68 2.281 2.844-.08.471.4.834 1.282.968.541.083 1.041.692 1.187 1.47.132.704-.293 1.494-1.062 1.905-.438.235-.477.318-.375 1.407.101 1.086.094 1.156-.407 1.656-.443.443-.691.54-1.53.562-1.545.042-3.39-1.028-3.907-2.25-.548-1.291-.483-3.906.094-3.906.1 0 .693.232 1.312.531 1.267.614 1.406.659 1.406.313 0-.33-2.089-1.334-3.062-1.469-.431-.06-.864-.154-.969-.219-.105-.064-.974-.28-1.937-.468-1.895-.371-5.11-.442-6.282-.157-.858.21-1.077.117-1.343-.468-.369-.809-.25-1.265.468-1.813.97-.739 1.267-1.004 2-1.719 1.497-1.458 2.275-1.73 3.094-1.156.216.151.406.476.438.75.073.638.381.572.562-.125.26-1.004 1.805-1.812 3.438-1.812zm-50.938.062c.253-.008.537.031 1 .125 1.547.315 2.377.793 2.531 1.406.261 1.04.844 1.18.844.22 0-.727.34-.928 1.25-.782.821.131 1.754.767 1.938 1.344.062.195.185.343.28.343.096 0 .653.313 1.25.688 1.177.738 1.422 1.171 1.157 2.094-.054.19.001.442-.156.562-.77.586-1.939.024-2.906.032-1.67.012-3.332.113-3.907.25-3.827.905-4.766 1.217-5.78 1.968-1.066.79-.659 1.044.5.313.389-.246.901-.499 1.155-.563.392-.098.491-.035.594.375.067.266.077 1.12.031 1.907-.068 1.182-.145 1.533-.53 2.03-.876 1.132-1.23 1.4-2.22 1.688-1.195.348-1.646.362-2.406.032-.708-.308-1.054-1.285-.812-2.344.146-.64.137-.689-.344-.938-.74-.382-1.094-.973-1.094-1.843 0-.641.114-.836.656-1.313.354-.31.804-.581 1-.594.908-.057.838.06.594-1.625-.103-.71-.055-.886.313-1.312.482-.559 1.41-.837 2.843-.844 1.051-.005 1.154-.163.594-.875-.696-.885-.404-1.616.875-2.156.282-.119.498-.18.75-.188zm42.688 7.594c.187.002.574.233 1.375.781.657.45 1.265.844 1.343.844.079 0 .442.296.813.687.478.505.687.883.687 1.282 0 .56-.235.693-.687.406-.602-.382-3.688-3.517-3.688-3.75 0-.156.044-.251.157-.25zm-35.594.187c.227-.047.375 0 .375.188 0 .125-.8.997-1.75 1.937-.95.94-1.719 1.791-1.719 1.875 0 .274-.669.168-.781-.125-.232-.605.743-1.71 3-3.406.347-.26.648-.42.875-.469z" fill="#467eb1"/><path d="M121.83 64.62c.562.21 1.248.287 1.905.354-.53-.027-1.381-.048-1.589.053-.447.059-.743.977-1.128 1.548.363-.591.438-.856.812-1.954z"/><path class="fil0" d="M71.221 141.327c-.462-.23-.694-.462-.925-.462.231-1.85 1.696-8.015 2.929-9.248-.925-.231-2.698-.462-3.622 0 0-.925.23-1.618.462-2.235 1.618-.231 3.391-.231 5.24-.231-1.695 3.93-3.622 7.63-3.622 12.022-.23 0-.462 0-.462.232zm5.164-9.941c.23 0 .462 0 .924.231v.694c5.24 1.079 5.164 5.394.232 8.169h-.694v-.694c2.851-2.851 3.853-4.084-.694-6.32 0-.693 0-1.387.232-2.003zm7.475 9.017c-.231-.232-.231-.463-.231-.694 2.697-2.697 3.776-3.545 2.235-5.163-.54-.54-1.696-.617-2.698-1.619.232-1.387.463-2.466.925-3.622 1.387-.231 2.698-.231 4.085-.231a60.247 60.247 0 0 1-.694 2.004c-1.156-.232-2.004-.463-2.928-.463-.232.463-.232.925-.232 1.387 5.55 1.388 4.547 6.705-.462 8.4zm-19.498-.848c1.233 0 .694-8.246.694-8.632-.463-.23-.694-.462-.925-.693.694-.463 1.618-.694 2.466-.925.925.925.462 8.17.462 9.71.232 0 .463 0 .694.232v.693c-.616 0-3.39.309-3.39-.462z" fill-rule="evenodd"/><path class="fil0" d="M76.385 131.386c.23-.694.462-1.387.924-2.004 1.156-.231 2.466-.231 3.854-.231-.232.462-.232.925-.232 1.387-.693.694-3.622-.231-3.622 1.156-.462-.231-.693-.231-.924-.231z" fill-rule="evenodd"/><path d="M76.422 5.14l-.62-.272-.602.302.097-.61-.508-.418.68-.106.29-.56.322.545.686.072-.48.442z" fill-rule="evenodd"/><path d="M76.52 3.442a1.162 1.17 0 0 1 .345 1.297 1.162 1.17 0 0 1-1.092.77 1.162 1.17 0 0 1-1.092-.77 1.162 1.17 0 0 1 .345-1.297m-4.841 143.956c-4.092-.85-6.886-1.675-8.69-2.563-2.051-1.011-2.17-1.15-1.782-2.096 2.428-5.936 2.582-6.662 2.46-11.633-.1-4.11-.249-4.861-1.607-8.08-.477-1.132-.841-2.085-.809-2.117.033-.033.844.344 1.803.838.967.497 2.575 1.11 3.611 1.376 7.271 1.867 19.377.765 26.818-2.44.53-.227 1-.376 1.045-.33.046.045-.183.838-.51 1.762-.779 2.209-1.132 4.146-1.405 7.723-.209 2.725-.194 3.134.201 5.492.485 2.897 1.13 5.011 2.006 6.57l.603 1.075-.656.547c-1.881 1.57-5.674 2.92-10.977 3.905-2.603.483-3.542.567-6.212.556-2.68-.011-3.555-.098-5.9-.585zm1.708-7.75c.176-2.06.861-4.351 2.3-7.699l1.172-2.723-1.902-.06c-1.046-.034-2.268-.008-2.716.057-.77.112-.827.167-1.033.984-.357 1.42-.367 1.407 1.056 1.316.7-.045 1.482-.029 1.737.035l.464.117-.555 1.156c-.58 1.21-1.804 5.408-2.046 7.022-.119.793-.083.982.229 1.21.203.149.547.245.764.214.344-.05.412-.259.53-1.63zm7.005.01c2.07-1.523 2.956-3.874 2.021-5.362-.467-.743-1.588-1.495-2.749-1.842-.66-.198-.815-.33-.768-.652.082-.571.862-.899 2.148-.902 1.223-.003 1.453-.167 1.587-1.133l.09-.64h-1.625c-.894 0-1.843.084-2.11.185-.544.207-1.165 1.63-1.392 3.188l-.133.914 1.183.718c1.384.84 1.982 1.525 1.982 2.268 0 .574-.751 1.712-1.745 2.645-.345.324-.615.777-.615 1.032 0 .724.783.57 2.126-.418zm6.743-.037c1.024-.628 2.058-1.921 2.34-2.93.503-1.795-.28-3.26-2.265-4.237-1.147-.564-1.289-.696-1.236-1.146.065-.566.412-.619 2.144-.33l.905.152.324-.809c.586-1.465.586-1.464-1.68-1.308-1.103.076-2.069.177-2.147.226-.08.049-.332.892-.563 1.874-.479 2.04-.461 2.091.944 2.753 1.357.639 2 1.305 2 2.074 0 .529-.262.923-1.481 2.226-1.273 1.36-1.452 1.637-1.274 1.969.23.43.6.335 1.989-.514zm-18.028.398c.431-.165.39-.88-.056-.996-.344-.09-.367-.36-.365-4.259.001-2.289-.083-4.427-.187-4.752-.245-.763-.744-.83-2.043-.27l-1.025.44.491.423c.454.39.5.585.585 2.519.112 2.518-.108 5.786-.41 6.089-.328.327-.266.526.224.723.51.205 2.327.26 2.786.083z" fill="none"/><path d="M70.185 147.398c-4.092-.85-6.886-1.675-8.69-2.563-2.051-1.011-2.17-1.15-1.782-2.096 2.428-5.936 2.582-6.662 2.46-11.633-.1-4.11-.249-4.861-1.607-8.08-.477-1.132-.841-2.085-.809-2.117.033-.033.844.344 1.803.838.967.497 2.575 1.11 3.611 1.376 7.271 1.867 19.377.765 26.818-2.44.53-.227 1-.376 1.045-.33.046.045-.183.838-.51 1.762-.779 2.209-1.132 4.146-1.405 7.723-.209 2.725-.194 3.134.201 5.492.485 2.897 1.13 5.011 2.006 6.57l.603 1.075-.656.547c-1.881 1.57-5.674 2.92-10.977 3.905-2.603.483-3.542.567-6.212.556-2.68-.011-3.555-.098-5.9-.585zm1.708-7.75c.176-2.06.861-4.351 2.3-7.699l1.172-2.723-1.902-.06c-1.046-.034-2.268-.008-2.716.057-.77.112-.827.167-1.033.984-.357 1.42-.367 1.407 1.056 1.316.7-.045 1.482-.029 1.737.035l.464.117-.555 1.156c-.58 1.21-1.804 5.408-2.046 7.022-.119.793-.083.982.229 1.21.203.149.547.245.764.214.344-.05.412-.259.53-1.63zm7.005.01c2.07-1.523 2.956-3.874 2.021-5.362-.467-.743-1.588-1.495-2.749-1.842-.66-.198-.815-.33-.768-.652.082-.571.862-.899 2.148-.902 1.223-.003 1.453-.167 1.587-1.133l.09-.64h-1.625c-.894 0-1.843.084-2.11.185-.544.207-1.165 1.63-1.392 3.188l-.133.914 1.183.718c1.384.84 1.982 1.525 1.982 2.268 0 .574-.751 1.712-1.745 2.645-.345.324-.615.777-.615 1.032 0 .724.783.57 2.126-.418zm6.743-.037c1.024-.628 2.058-1.921 2.34-2.93.503-1.795-.28-3.26-2.265-4.237-1.147-.564-1.289-.696-1.236-1.146.065-.566.412-.619 2.144-.33l.905.152.324-.809c.586-1.465.586-1.464-1.68-1.308-1.103.076-2.069.177-2.147.226-.08.049-.332.892-.563 1.874-.479 2.04-.461 2.091.944 2.753 1.357.639 2 1.305 2 2.074 0 .529-.262.923-1.481 2.226-1.273 1.36-1.452 1.637-1.274 1.969.23.43.6.335 1.989-.514zm-18.028.398c.431-.165.39-.88-.056-.996-.344-.09-.367-.36-.365-4.259.001-2.289-.083-4.427-.187-4.752-.245-.763-.744-.83-2.043-.27l-1.025.44.491.423c.454.39.5.585.585 2.519.112 2.518-.108 5.786-.41 6.089-.328.327-.266.526.224.723.51.205 2.327.26 2.786.083z" fill="none"/><path d="M70.185 147.398c-4.092-.85-6.886-1.675-8.69-2.563-2.051-1.011-2.17-1.15-1.782-2.096 2.428-5.936 2.582-6.662 2.46-11.633-.1-4.11-.249-4.861-1.607-8.08-.477-1.132-.841-2.085-.809-2.117.033-.033.844.344 1.803.838.967.497 2.575 1.11 3.611 1.376 7.271 1.867 19.377.765 26.818-2.44.53-.227 1-.376 1.045-.33.046.045-.183.838-.51 1.762-.779 2.209-1.132 4.146-1.405 7.723-.209 2.725-.194 3.134.201 5.492.485 2.897 1.13 5.011 2.006 6.57l.603 1.075-.656.547c-1.881 1.57-5.674 2.92-10.977 3.905-2.603.483-3.542.567-6.212.556-2.68-.011-3.555-.098-5.9-.585zm1.708-7.75c.176-2.06.861-4.351 2.3-7.699l1.172-2.723-1.902-.06c-1.046-.034-2.268-.008-2.716.057-.77.112-.827.167-1.033.984-.357 1.42-.367 1.407 1.056 1.316.7-.045 1.482-.029 1.737.035l.464.117-.555 1.156c-.58 1.21-1.804 5.408-2.046 7.022-.119.793-.083.982.229 1.21.203.149.547.245.764.214.344-.05.412-.259.53-1.63zm7.005.01c2.07-1.523 2.956-3.874 2.021-5.362-.467-.743-1.588-1.495-2.749-1.842-.66-.198-.815-.33-.768-.652.082-.571.862-.899 2.148-.902 1.223-.003 1.453-.167 1.587-1.133l.09-.64h-1.625c-.894 0-1.843.084-2.11.185-.544.207-1.165 1.63-1.392 3.188l-.133.914 1.183.718c1.384.84 1.982 1.525 1.982 2.268 0 .574-.751 1.712-1.745 2.645-.345.324-.615.777-.615 1.032 0 .724.783.57 2.126-.418zm6.743-.037c1.024-.628 2.058-1.921 2.34-2.93.503-1.795-.28-3.26-2.265-4.237-1.147-.564-1.289-.696-1.236-1.146.065-.566.412-.619 2.144-.33l.905.152.324-.809c.586-1.465.586-1.464-1.68-1.308-1.103.076-2.069.177-2.147.226-.08.049-.332.892-.563 1.874-.479 2.04-.461 2.091.944 2.753 1.357.639 2 1.305 2 2.074 0 .529-.262.923-1.481 2.226-1.273 1.36-1.452 1.637-1.274 1.969.23.43.6.335 1.989-.514zm-18.028.398c.431-.165.39-.88-.056-.996-.344-.09-.367-.36-.365-4.259.001-2.289-.083-4.427-.187-4.752-.245-.763-.744-.83-2.043-.27l-1.025.44.491.423c.454.39.5.585.585 2.519.112 2.518-.108 5.786-.41 6.089-.328.327-.266.526.224.723.51.205 2.327.26 2.786.083z" fill="none"/><path d="M70.185 147.398c-4.092-.85-6.886-1.675-8.69-2.563-2.051-1.011-2.17-1.15-1.782-2.096 2.428-5.936 2.582-6.662 2.46-11.633-.1-4.11-.249-4.861-1.607-8.08-.477-1.132-.841-2.085-.809-2.117.033-.033.844.344 1.803.838.967.497 2.575 1.11 3.611 1.376 7.271 1.867 19.377.765 26.818-2.44.53-.227 1-.376 1.045-.33.046.045-.183.838-.51 1.762-.779 2.209-1.132 4.146-1.405 7.723-.209 2.725-.194 3.134.201 5.492.485 2.897 1.13 5.011 2.006 6.57l.603 1.075-.656.547c-1.881 1.57-5.674 2.92-10.977 3.905-2.603.483-3.542.567-6.212.556-2.68-.011-3.555-.098-5.9-.585zm1.708-7.75c.176-2.06.861-4.351 2.3-7.699l1.172-2.723-1.902-.06c-1.046-.034-2.268-.008-2.716.057-.77.112-.827.167-1.033.984-.357 1.42-.367 1.407 1.056 1.316.7-.045 1.482-.029 1.737.035l.464.117-.555 1.156c-.58 1.21-1.804 5.408-2.046 7.022-.119.793-.083.982.229 1.21.203.149.547.245.764.214.344-.05.412-.259.53-1.63zm7.005.01c2.07-1.523 2.956-3.874 2.021-5.362-.467-.743-1.588-1.495-2.749-1.842-.66-.198-.815-.33-.768-.652.082-.571.862-.899 2.148-.902 1.223-.003 1.453-.167 1.587-1.133l.09-.64h-1.625c-.894 0-1.843.084-2.11.185-.544.207-1.165 1.63-1.392 3.188l-.133.914 1.183.718c1.384.84 1.982 1.525 1.982 2.268 0 .574-.751 1.712-1.745 2.645-.345.324-.615.777-.615 1.032 0 .724.783.57 2.126-.418zm6.743-.037c1.024-.628 2.058-1.921 2.34-2.93.503-1.795-.28-3.26-2.265-4.237-1.147-.564-1.289-.696-1.236-1.146.065-.566.412-.619 2.144-.33l.905.152.324-.809c.586-1.465.586-1.464-1.68-1.308-1.103.076-2.069.177-2.147.226-.08.049-.332.892-.563 1.874-.479 2.04-.461 2.091.944 2.753 1.357.639 2 1.305 2 2.074 0 .529-.262.923-1.481 2.226-1.273 1.36-1.452 1.637-1.274 1.969.23.43.6.335 1.989-.514zm-18.028.398c.431-.165.39-.88-.056-.996-.344-.09-.367-.36-.365-4.259.001-2.289-.083-4.427-.187-4.752-.245-.763-.744-.83-2.043-.27l-1.025.44.491.423c.454.39.5.585.585 2.519.112 2.518-.108 5.786-.41 6.089-.328.327-.266.526.224.723.51.205 2.327.26 2.786.083z" fill="none"/><path d="M70.185 147.398c-4.092-.85-6.886-1.675-8.69-2.563-2.051-1.011-2.17-1.15-1.782-2.096 2.428-5.936 2.582-6.662 2.46-11.633-.1-4.11-.249-4.861-1.607-8.08-.477-1.132-.841-2.085-.809-2.117.033-.033.844.344 1.803.838.967.497 2.575 1.11 3.611 1.376 7.271 1.867 19.377.765 26.818-2.44.53-.227 1-.376 1.045-.33.046.045-.183.838-.51 1.762-.779 2.209-1.132 4.146-1.405 7.723-.209 2.725-.194 3.134.201 5.492.485 2.897 1.13 5.011 2.006 6.57l.603 1.075-.656.547c-1.881 1.57-5.674 2.92-10.977 3.905-2.603.483-3.542.567-6.212.556-2.68-.011-3.555-.098-5.9-.585zm1.708-7.75c.176-2.06.861-4.351 2.3-7.699l1.172-2.723-1.902-.06c-1.046-.034-2.268-.008-2.716.057-.77.112-.827.167-1.033.984-.357 1.42-.367 1.407 1.056 1.316.7-.045 1.482-.029 1.737.035l.464.117-.555 1.156c-.58 1.21-1.804 5.408-2.046 7.022-.119.793-.083.982.229 1.21.203.149.547.245.764.214.344-.05.412-.259.53-1.63zm7.005.01c2.07-1.523 2.956-3.874 2.021-5.362-.467-.743-1.588-1.495-2.749-1.842-.66-.198-.815-.33-.768-.652.082-.571.862-.899 2.148-.902 1.223-.003 1.453-.167 1.587-1.133l.09-.64h-1.625c-.894 0-1.843.084-2.11.185-.544.207-1.165 1.63-1.392 3.188l-.133.914 1.183.718c1.384.84 1.982 1.525 1.982 2.268 0 .574-.751 1.712-1.745 2.645-.345.324-.615.777-.615 1.032 0 .724.783.57 2.126-.418zm6.743-.037c1.024-.628 2.058-1.921 2.34-2.93.503-1.795-.28-3.26-2.265-4.237-1.147-.564-1.289-.696-1.236-1.146.065-.566.412-.619 2.144-.33l.905.152.324-.809c.586-1.465.586-1.464-1.68-1.308-1.103.076-2.069.177-2.147.226-.08.049-.332.892-.563 1.874-.479 2.04-.461 2.091.944 2.753 1.357.639 2 1.305 2 2.074 0 .529-.262.923-1.481 2.226-1.273 1.36-1.452 1.637-1.274 1.969.23.43.6.335 1.989-.514zm-18.028.398c.431-.165.39-.88-.056-.996-.344-.09-.367-.36-.365-4.259.001-2.289-.083-4.427-.187-4.752-.245-.763-.744-.83-2.043-.27l-1.025.44.491.423c.454.39.5.585.585 2.519.112 2.518-.108 5.786-.41 6.089-.328.327-.266.526.224.723.51.205 2.327.26 2.786.083z" fill="none"/><path d="M70.765 140.994c-.361-.15-.303-.914.236-3.117.591-2.416 1.35-4.655 1.885-5.56.22-.376.347-.738.28-.806-.068-.067-.875-.122-1.795-.122H69.7l.121-.787c.18-1.16.455-1.278 2.997-1.278 1.223 0 2.224.042 2.224.093 0 .05-.229.604-.508 1.229-1.733 3.876-2.608 6.63-2.797 8.802-.137 1.58-.292 1.826-.972 1.546z" fill="none"/><path d="M70.765 140.994c-.361-.15-.303-.914.236-3.117.591-2.416 1.35-4.655 1.885-5.56.22-.376.347-.738.28-.806-.068-.067-.875-.122-1.795-.122H69.7l.121-.787c.18-1.16.455-1.278 2.997-1.278 1.223 0 2.224.042 2.224.093 0 .05-.229.604-.508 1.229-1.733 3.876-2.608 6.63-2.797 8.802-.137 1.58-.292 1.826-.972 1.546z" fill="none"/><path d="M70.853 141.103a4.14 4.14 0 0 0-.443-.232c-.086-.029-.098-.045-.085-.117l.078-.475c.148-.895.498-2.433.843-3.701.673-2.47 1.312-4.113 1.867-4.799l.139-.172-.23-.052a7.845 7.845 0 0 0-1.87-.197c-.737 0-1.024.035-1.38.17l-.152.058v-.161c.002-.239.08-.782.156-1.084.12-.472.285-.934.34-.95.071-.02.91-.108 1.38-.143.47-.036 3.741-.112 3.765-.088.01.009-.294.726-.674 1.592-.982 2.233-1.346 3.118-1.762 4.288-.708 1.992-1.142 4.166-1.142 5.727v.38l-.159.014a.583.583 0 0 0-.243.078l-.085.063z" fill="#467eb1" stroke="#467eb1" stroke-width=".031"/><path d="M76.87 140.136v-.33l.617-.649c.685-.719.975-1.052 1.242-1.425.216-.302.438-.733.501-.975.066-.255.06-.617-.017-.864-.213-.688-1.064-1.411-2.605-2.21l-.434-.226.019-.628c.021-.744.05-.906.295-1.69.224-.717.678-1.642.85-1.734.087-.047.88-.15 1.423-.186.275-.018.925-.042 1.445-.053l.946-.021-.064.145c-.095.213-.155.577-.155.927 0 .3-.002.31-.086.369-.235.166-.551.215-1.664.254-1.104.04-1.41.103-1.667.34-.177.165-.208.274-.208.73v.416l.304.07c1.159.27 2.085.738 2.729 1.381.598.598.873 1.239.872 2.027-.002 1.57-1.281 3.248-3.454 4.532l-.22.13h-.669z"/><path d="M83.814 140.334a.928.928 0 0 1-.162-.475v-.154l.962-.97c1.425-1.437 1.79-1.912 1.932-2.51.124-.53-.12-1.142-.665-1.668-.237-.228-.317-.274-1.089-.62a10.655 10.655 0 0 1-.757-.371c-.25-.147-.673-.457-.782-.575l-.07-.075.08-.451c.188-1.077.43-2.035.705-2.789l.131-.36.237-.034c.853-.123 1.95-.19 3.088-.19h.732l-.022.07a55.305 55.305 0 0 1-.662 1.87c-.013.013-.354-.045-.758-.13-.803-.167-1.414-.263-1.88-.295l-.3-.02-.082.244a2.927 2.927 0 0 0-.144.934v.252l.164.041c.64.16 1.556.571 2.037.913.754.537 1.26 1.244 1.461 2.046.057.226.07.362.068.73-.002.498-.049.759-.228 1.25-.483 1.322-1.833 2.56-3.518 3.229-.369.146-.434.16-.478.108zm-18.178-.355a4.493 4.493 0 0 1-.852-.13c-.154-.047-.383-.2-.383-.256 0-.014.042-.042.092-.063.348-.144.57-1.135.661-2.954.042-.825.018-3.46-.044-4.81-.035-.767-.043-.843-.097-.875-.21-.122-.53-.35-.685-.49l-.183-.164.12-.073c.24-.148.655-.33 1.087-.476.58-.197 1.188-.36 1.252-.335.182.07.39.979.487 2.13.053.628.072 3.417.032 4.734-.02.644-.045 1.538-.055 1.987l-.02.815.187.017a.807.807 0 0 1 .455.174c.046.04.055.103.055.382v.334l-.445.02c-.688.03-1.457.046-1.664.033z" fill="#467eb1" stroke="#467eb1" stroke-width=".031"/><path d="M76.876 140.144v-.323l.426-.45c.626-.663.98-1.051 1.163-1.274.369-.448.684-1 .776-1.358.066-.258.043-.69-.05-.933-.247-.65-1.08-1.345-2.503-2.09l-.504-.265.02-.547c.024-.706.058-.956.193-1.418.162-.559.3-.918.557-1.441.306-.624.317-.634.803-.704.212-.03.56-.071.776-.09.426-.037 2.562-.108 2.584-.085.008.008-.007.054-.032.102-.073.144-.145.531-.17.917l-.023.36-.172.085c-.233.115-.438.142-1.495.196-1.172.06-1.398.103-1.685.318-.181.136-.225.27-.247.755l-.02.433.31.07c1.837.42 3.162 1.415 3.518 2.645.063.216.072.314.07.763-.002.574-.04.767-.247 1.274-.464 1.139-1.637 2.334-3.19 3.252-.22.13-.222.13-.54.13h-.318z" stroke="#1d85b3" stroke-width=".031"/><path d="M76.876 140.137v-.33l.622-.662c.767-.818 1.056-1.153 1.269-1.475.417-.63.547-1.048.482-1.547-.052-.392-.194-.639-.605-1.05-.493-.493-.935-.797-1.96-1.347l-.505-.271.02-.597c.024-.699.067-.98.238-1.533.221-.718.607-1.571.814-1.802.097-.107.136-.126.344-.164.46-.086 1.188-.141 2.336-.178.64-.021 1.172-.03 1.182-.02.01.011-.008.095-.042.186-.066.18-.12.513-.15.936l-.018.269-.13.063c-.276.134-.5.166-1.615.227-1.04.058-1.32.108-1.557.28-.238.173-.276.282-.291.836l-.01.363.405.103c1.82.466 3.025 1.392 3.41 2.62.049.157.058.284.056.766-.002.534-.009.6-.087.86-.125.416-.446 1.038-.743 1.437-.489.658-1.262 1.362-2.12 1.93-.63.418-.658.43-1.031.43h-.314z" stroke="#1d85b3" stroke-width=".031"/><path d="M76.877 140.13v-.335l.583-.625c1.034-1.11 1.305-1.452 1.569-1.977.161-.321.222-.551.222-.836 0-.48-.135-.768-.577-1.229-.478-.498-.929-.813-1.97-1.379a33.348 33.348 0 0 1-.534-.293c-.02-.033.058-1.272.094-1.48.092-.537.41-1.429.728-2.044.202-.392.302-.512.466-.556.366-.098 1.472-.182 2.775-.212l.903-.02-.021.075c-.118.414-.174.743-.176 1.029-.002.252-.025.308-.16.377-.25.127-.484.16-1.687.232-1.081.065-1.353.126-1.585.358-.14.141-.175.28-.176.717l-.001.388.39.102c1.095.286 1.914.7 2.52 1.273.344.325.544.588.718.946.179.366.23.616.23 1.122 0 .655-.08.999-.377 1.588-.478.951-1.334 1.848-2.544 2.666-.656.444-.67.45-1.057.45h-.334l.001-.336z" fill="#467eb1" stroke="#467eb1" stroke-width=".031"/></svg>